<svg
    width="512" height="512"
    viewBox="0 0 512 512"
    xmlns="http://www.w3.org/2000/svg"
    style="stroke-linecap:round; stroke-linejoin:round; stroke-miterlimit:1.5; fill:none; stroke:none;"
>
    <g transform="translate(256, 256)">
        <g transform="rotate(-45) scale(0.77)">
        <!--<g transform="">-->
            <!-- SHADOW -->
            <g transform="translate(0, 30)">
                <ellipse transform="translate(-110, -150)" cx="0" cy="0" rx="72" ry="72" style="fill:#000;stroke:#000;stroke-width:80px;"/>
                <ellipse transform="translate(+110, -150)" cx="0" cy="0" rx="72" ry="72" style="fill:#000;stroke:#000;stroke-width:80px;"/>
                <path d="M-220,0 L+220,-0Z  M0,0 L-160,+200Z  M0,0 L+160,+200Z" style="stroke-width:100px;stroke:#000;"/>
            </g>
            <!-- EYES -->
            <g transform="translate(0, -150)">
                <g transform="translate(-110, 0)">
                    <ellipse cx="0" cy="0" rx="72" ry="72" style="fill:#fff;stroke:#fff;stroke-width:80px;"/>
                    <ellipse cx="0" cy="0" rx="72" ry="72" style="fill:none;stroke:#47009C;stroke-width:40px;"/>
                    <ellipse cx="0" cy="24" rx="32" ry="32" style="fill:#47009C;"/>
                </g>
                <g transform="translate(+110, 0)">
                    <ellipse cx="0" cy="0" rx="72" ry="72" style="fill:#fff;stroke:#fff;stroke-width:80px;"/>
                    <ellipse cx="0" cy="0" rx="72" ry="72" style="fill:#fff;stroke:#47009C;stroke-width:40px;"/>
                    <ellipse cx="0" cy="24" rx="32" ry="32" style="fill:#47009C;"/>
                </g>
            </g>
            <!-- BODY -->
            <path d="M-220,0 L+220,-0Z  M0,0 L-160,+200Z  M0,0 L+160,+200Z" style="stroke-width:100px;stroke:#fff;"/>
            <path d="M-220,0 L+220,-0Z  M0,0 L-160,+200Z  M0,0 L+160,+200Z" style="stroke-width:65px;stroke:#47009C;"/>
        </g>
    </g>
</svg>
