<svg xmlns="http://www.w3.org/2000/svg" xmlns:xlink="http://www.w3.org/1999/xlink" width="1400" height="980" xmlns:v="https://vecta.io/nano"><style><![CDATA[.B{fill-rule:evenodd}.C{opacity:.029}.D{opacity:.039}.E{opacity:.049}.F{opacity:.059}.G{opacity:.069}.H{opacity:.078}.I{opacity:.088}.J{opacity:.098}.K{opacity:.108}.L{opacity:.118}.M{opacity:.128}.N{opacity:.137}.O{opacity:.147}.P{opacity:.157}.Q{opacity:.167}.R{opacity:.177}.S{opacity:.186}.T{opacity:.196}.U{opacity:.206}.V{opacity:.216}.W{opacity:.226}.X{opacity:.235}.Y{opacity:.245}.Z{opacity:.255}.a{opacity:.265}.b{opacity:.275}.c{opacity:.284}.d{opacity:.294}.e{opacity:.304}.f{opacity:.314}.g{opacity:.324}.h{opacity:.333}.i{opacity:.343}.j{opacity:.353}.k{opacity:.363}.l{opacity:.373}.m{opacity:.382}.n{opacity:.392}.o{opacity:.402}.p{opacity:.412}.q{opacity:.422}.r{opacity:.431}.s{opacity:.441}.t{opacity:.451}.u{opacity:.461}.v{opacity:.471}]]></style><linearGradient id="A" gradientUnits="userSpaceOnUse" x1="700" y1="980" x2="700" y2="0"><stop offset="0" stop-color="#ba2ba0"/><stop offset="1" stop-color="#470b96"/></linearGradient><path fill="url(#A)" d="M0 0h1400v980H0z" class="B"/><linearGradient id="B" gradientUnits="userSpaceOnUse" x1="430.313" y1="756.87" x2="430.313" y2="0"><stop offset="0" stop-color="#ba2ba0"/><stop offset="1" stop-color="#470b96"/></linearGradient><path fill="url(#B)" d="M487.3 0c33.6 0-74.6 80.6-81.5 131.8-4.6 34.4 42.1 57 51.9 90.3 15.1 51.7 14.8 108-20.8 134.8-26.7 20.2-67.5 15.8-93.3 37-26.9 22.2-31.5 64.3-57.8 87.4-24.1 21.1-63.2 19-87.4 40-32.3 27.9-18.6 91.9-77 102.2-51.2 9-78.2 105.1-121.4 57.7v75.5c49.4 3.2 71.8-77.4 118.4-99.2 40.2-18.8 111.4 10.2 131.8-17.8 24.1-33.1-28.5-94.3-13.3-113.3 29.9-37.5 100.8 2.7 128.9-31.8 14.4-17.7-10.2-52.1 0-72.6 21.5-43.3 93.9 5.1 165.9-26.7 37.6-16.5 93.1 59.2 120 28.1 29-33.4-32-84.6-32.6-128.9-.5-35.4 2.5-79.3 29.6-102.2 34.7-29.2 101.7-.1 131.8-34 24.3-27.4-20.9-77-4.4-109.6 14.7-29 56.3-32.8 84.4-48.8H727.2c-29.4 19.7 8 55.7-10.4 71-20.1 16.8-54-6.3-78.5 3-44.1 16.7-78.5 70.7-124.4 81.4-24.3 5.7-38.9-29.3-19.2-45.9 20.2-17.1 47.9-26.2 63.7-47.4 12.9-17.1 11.9-41 17.8-62h-88.9 0zm113.3 353.9c9.4-5.1 22.8 1.1 29.9 14s5.2 27.6-4.2 32.7c-9.4 5.2-22.8-1.1-29.9-14s-5.2-27.6 4.2-32.7h0zM222.8 558.1c-4.2-2.3-10.2.5-13.4 6.3s-2.3 12.4 1.9 14.7 10.2-.5 13.4-6.3 2.3-12.4-1.9-14.7h0zm13.1 41.3c-7.5-4.1-18.1.9-23.7 11.1s-4.1 21.8 3.4 25.9 18.1-.9 23.7-11.1c5.5-10.2 4-21.8-3.4-25.9h0zm367.9-454.9c-6.9-3.8-16.7.8-21.9 10.3s-3.8 20.3 3.1 24c6.9 3.8 16.7-.8 21.9-10.3 5.3-9.4 3.9-20.2-3.1-24h0zM349.3 459.7c-6.9-3.8-16.7.8-21.9 10.3s-3.8 20.2 3.1 24 16.7-.8 21.9-10.3c5.2-9.4 3.8-20.2-3.1-24h0zm242.9-149.3c4.3-2.3 10.3.5 13.5 6.4 3.2 5.8 2.3 12.5-1.9 14.8-4.3 2.3-10.3-.5-13.5-6.4-3.2-5.8-2.3-12.5 1.9-14.8h0z" class="B"/><linearGradient id="C" gradientUnits="userSpaceOnUse" x1="1009.91" y1="980" x2="1009.91" y2="533.249"><stop offset="0" stop-color="#ba2ba0"/><stop offset="1" stop-color="#470b96"/></linearGradient><path fill="url(#C)" d="M619.8 980c44.9-18.5 37.5-79.8 66.7-125.3 41.6-65.1 138.2-12.3 188.1-56.4 57.7-51 123.2 47.5 179.2 45.9 76.4-2.3 30.8-244.5 157.2-216.3 60.9 13.6 109.9-108.6 189-93.3V980H619.8z" class="B"/><linearGradient id="D" gradientUnits="userSpaceOnUse" x1="222.544" y1="476.112" x2="222.544" y2="0"><stop offset="0" stop-color="#ba2ba0"/><stop offset="1" stop-color="#470b96"/></linearGradient><g class="B"><path fill="url(#D)" d="M0 476.1c18.5-44.9 20.3-101.3 55.5-134.8 56-53.3 180.2-4.5 231.1-47.4 22.8-19.2-11.2-63.6 29.6-84.4 25.8-13.1-11.9-61.4-11.9-85.9.3-62.4 93.9-82.9 140.8-123.6H0v476.1z"/><g fill="#fff"><use xlink:href="#De"/><path d="M190.1 363a6.49 6.49 0 1 0 0-13 6.49 6.49 0 0 0-6.5 6.5c0 3.6 3 6.5 6.5 6.5h0z"/><use xlink:href="#De" x="-18.5" y="489.7"/><path d="M1021.6 542.6a6.49 6.49 0 1 0 0-13 6.49 6.49 0 0 0-6.5 6.5c0 3.6 3 6.5 6.5 6.5h0z"/><use xlink:href="#De" x="209.3" y="619.3"/><use xlink:href="#Df"/><use xlink:href="#Df" x="-400" y="279.5"/><path d="M288.8 525c1.8 0 3.3-1.4 3.3-3.2a3.33 3.33 0 0 0-3.3-3.3c-1.8 0-3.2 1.5-3.2 3.3-.1 1.7 1.4 3.2 3.2 3.2h0z"/><use xlink:href="#Dg"/><path d="M466.5 69.5a3.33 3.33 0 0 0 3.3-3.3c0-1.8-1.5-3.2-3.3-3.2s-3.2 1.4-3.2 3.2c0 1.9 1.5 3.3 3.2 3.3h0zm-48.1 124.1c1.8 0 3.3-1.4 3.3-3.2a3.33 3.33 0 0 0-3.3-3.3c-1.8 0-3.2 1.5-3.2 3.3s1.4 3.2 3.2 3.2h0zM822.1 75.1a3.33 3.33 0 0 0 3.3-3.3c0-1.8-1.5-3.2-3.3-3.2s-3.2 1.4-3.2 3.2 1.4 3.3 3.2 3.3h0zm-294.4 374c1.8 0 3.2-1.5 3.2-3.3s-1.4-3.2-3.2-3.2-3.3 1.4-3.3 3.2a3.33 3.33 0 0 0 3.3 3.3h0z"/><use xlink:href="#Dg" x="-25.9" y="511"/><path d="M994.3 658.3c1.8 0 3.2-1.4 3.2-3.2s-1.4-3.3-3.2-3.3a3.33 3.33 0 0 0-3.3 3.3c.1 1.7 1.6 3.2 3.3 3.2h0z"/><use xlink:href="#Dh"/><use xlink:href="#Dh" x="-94.7" y="118.5"/><path d="M359.1 587.9a1.58 1.58 0 1 0 0-3.2 1.58 1.58 0 0 0-1.6 1.6c0 .9.8 1.6 1.6 1.6h0z"/><use xlink:href="#Dh" x="-553.9" y="-235.1"/><use xlink:href="#Di"/><use xlink:href="#Dj"/><use xlink:href="#Dj" x="213" y="-187"/><use xlink:href="#Dh" x="-263.2" y="-586.9"/><use xlink:href="#Dh" x="138.7" y="-13"/><use xlink:href="#Dj" x="-400" y="-255.5"/><use xlink:href="#Dh" x="-110" y="-59.6"/><use xlink:href="#Dh" x="-174.8" y="-181.8"/><path d="M1012.3 302.5a1.58 1.58 0 1 0 0-3.2 1.58 1.58 0 0 0-1.6 1.6c0 .8.8 1.6 1.6 1.6h0z"/><use xlink:href="#Dh" x="-689.6" y="-349.8"/><use xlink:href="#Di" x="229.1" y="-48.4"/><use xlink:href="#Dh" x="-585.9" y="184.8"/><use xlink:href="#Dh" x="-282.2" y="286.6"/><use xlink:href="#Dh" x="303" y="184.8"/><path d="M584.8 772c1.8 0 3.2-1.5 3.2-3.3s-1.4-3.3-3.2-3.3a3.33 3.33 0 0 0-3.3 3.3c0 1.9 1.5 3.3 3.3 3.3h0zm361.1 107.4c1.8 0 3.2-1.5 3.2-3.3s-1.4-3.2-3.2-3.2-3.3 1.4-3.3 3.2c.1 1.8 1.5 3.3 3.3 3.3h0zm137-166.6c1.8 0 3.3-1.4 3.3-3.2a3.33 3.33 0 0 0-3.3-3.3c-1.8 0-3.2 1.5-3.2 3.3 0 1.7 1.4 3.2 3.2 3.2h0zm209.3 64.8c1.8 0 3.3-1.4 3.3-3.2a3.33 3.33 0 0 0-3.3-3.3 3.33 3.33 0 0 0-3.3 3.3c0 1.7 1.5 3.2 3.3 3.2h0zM897.8 529.5c1.8 0 3.2-1.5 3.2-3.3s-1.4-3.3-3.2-3.3a3.33 3.33 0 0 0-3.3 3.3 3.33 3.33 0 0 0 3.3 3.3h0zm329.6-146.3c1.8 0 3.3-1.4 3.3-3.2a3.33 3.33 0 0 0-3.3-3.3 3.33 3.33 0 0 0-3.3 3.3c0 1.8 1.5 3.2 3.3 3.2h0zM1052 102.3a3.33 3.33 0 0 0 3.3-3.3 3.33 3.33 0 0 0-3.3-3.3c-1.8 0-3.2 1.5-3.2 3.3s1.4 3.3 3.2 3.3h0z"/><use xlink:href="#Dg" x="331.2" y="165.6"/><path d="M141 256.5a3.33 3.33 0 0 0 3.3-3.3 3.33 3.33 0 0 0-3.3-3.3c-1.8 0-3.2 1.5-3.2 3.3s1.4 3.3 3.2 3.3h0zm569.7 639.6a3.33 3.33 0 0 0 3.3-3.3c0-1.8-1.5-3.2-3.3-3.2s-3.2 1.4-3.2 3.2 1.4 3.3 3.2 3.3h0z"/><use xlink:href="#De" x="636.3" y="717.3"/><use xlink:href="#Df" x="425.2" y="799.7"/><use xlink:href="#De" x="441.9" y="291.5"/><use xlink:href="#De" x="-80.4" y="121.2"/><use xlink:href="#De" x="-204.4" y="341.5"/><use xlink:href="#De" x="-524.8" y="472.9"/><use xlink:href="#Di" x="1270.1" y="566.1"/></g></g><linearGradient id="E" gradientUnits="userSpaceOnUse" x1="276.464" y1="833.929" x2="276.464" y2="550.156"><stop offset="0" stop-color="#ffb977"/><stop offset="1" stop-color="#8c22f7"/></linearGradient><path fill="url(#E)" d="M102.4 739c-11.2 5-17.7-39-25.1-38-7.6.9-9.9 66.8 8.4 94.7 19.6 30 81.4 42.5 85.8 36.9 4.6-5.8-34.3-14.6-32.6-24.2 1.7-10.1 43.8-7.9 44.8-16.1.6-5.2-22.4-3.4-23.9-16.1-2.4-20 174.8-123.7 170.1-132.1-5.8-10.1-182.4 109-191.7 90.7-5.4-10.8-3.1-25.4-8.3-25.7-4.7-.2-14.5 24.1-27.5 29.9h0zm254.1-109.9c4.7 7 129.6-70.5 124.5-78.7-3.2-5.3-130.8 69.3-124.5 78.7h0z" class="B"/><linearGradient id="F" gradientUnits="userSpaceOnUse" x1="109.372" y1="799.18" x2="109.372" y2="761.916"><stop offset="0" stop-color="#ff7c58"/><stop offset="1" stop-color="#720bda"/></linearGradient><path fill="url(#F)" d="M105.8 762.2c5.9-1.7 26.6 6 26.6 16.2s-16.4 20.8-26.6 20.8-23.4-10.2-18.5-18.5 12.7-16.8 18.5-18.5h0z" class="B"/><linearGradient id="G" gradientUnits="userSpaceOnUse" x1="105.612" y1="795.436" x2="105.612" y2="770.386"><stop offset="0" stop-color="#ff4998"/><stop offset="1" stop-color="#5600ac"/></linearGradient><path fill="url(#G)" d="M103.4 782.3c5.8 0 12.8-2.6 12.8 3.2s-8.3 10-14.1 10A10.5 10.5 0 0 1 91.6 785c0-5.8 5.9-2.7 11.8-2.7h0zm9.5-4.9c3.1 0 6.8 1.4 6.8-1.7s-4.4-5.3-7.5-5.3a5.59 5.59 0 0 0-5.6 5.6c0 3 3.3 1.4 6.3 1.4h0z" class="B"/><linearGradient id="H" gradientUnits="userSpaceOnUse" x1="1226.959" y1="391.339" x2="1226.959" y2="0"><stop offset="0" stop-color="#ba2ba0"/><stop offset="1" stop-color="#470b96"/></linearGradient><path opacity="0" fill="url(#H)" d="M1054.3 0H1400v391.3c-193.8-14.4-346.1-175.9-346.1-373.1 0-6 0-12 .4-18.2h0z" class="B"/><linearGradient id="I" gradientUnits="userSpaceOnUse" x1="1227.52" y1="390.064" x2="1227.52" y2="0"><stop offset="0" stop-color="#ba2ba0"/><stop offset="1" stop-color="#470b96"/></linearGradient><path opacity=".01" fill="url(#I)" d="M1055.4 0H1400v390.1c-193.2-14.4-345-175.3-345-371.8 0-6.2.1-12.2.4-18.3h0z" class="B"/><linearGradient id="J" gradientUnits="userSpaceOnUse" x1="1228.082" y1="388.79" x2="1228.082" y2="0"><stop offset="0" stop-color="#ba2ba0"/><stop offset="1" stop-color="#470b96"/></linearGradient><path opacity=".02" fill="url(#J)" d="M1056.5 0H1400v388.8c-192.6-14.3-343.8-174.8-343.8-370.6 0-6.1 0-12.1.3-18.2h0z" class="B"/><linearGradient id="K" gradientUnits="userSpaceOnUse" x1="1228.643" y1="387.515" x2="1228.643" y2="0"><stop offset="0" stop-color="#ba2ba0"/><stop offset="1" stop-color="#470b96"/></linearGradient><path fill="url(#K)" d="M1057.6 0H1400v387.5c-192-14.3-342.7-174.2-342.7-369.4 0-6.1 0-12 .3-18.1h0z" class="B C"/><linearGradient id="L" gradientUnits="userSpaceOnUse" x1="1229.205" y1="386.24" x2="1229.205" y2="0"><stop offset="0" stop-color="#ba2ba0"/><stop offset="1" stop-color="#470b96"/></linearGradient><path fill="url(#L)" d="M1058.7 0H1400v386.2C1209 372 1058.4 212.6 1058.4 18c0-6 0-11.9.3-18h0z" class="B D"/><linearGradient id="M" gradientUnits="userSpaceOnUse" x1="1229.766" y1="384.966" x2="1229.766" y2="0"><stop offset="0" stop-color="#ba2ba0"/><stop offset="1" stop-color="#470b96"/></linearGradient><path fill="url(#M)" d="M1059.8 0H1400v385c-190.7-14.2-340.5-173-340.5-367a544.79 544.79 0 0 1 .3-18h0z" class="B E"/><linearGradient id="N" gradientUnits="userSpaceOnUse" x1="1230.328" y1="383.691" x2="1230.328" y2="0"><stop offset="0" stop-color="#ba2ba0"/><stop offset="1" stop-color="#470b96"/></linearGradient><path fill="url(#N)" d="M1061 0h339v383.7c-190.1-14.1-339.3-172.5-339.3-365.8 0-6 0-11.9.3-17.9h0z" class="B F"/><linearGradient id="O" gradientUnits="userSpaceOnUse" x1="1230.889" y1="382.416" x2="1230.889" y2="0"><stop offset="0" stop-color="#ba2ba0"/><stop offset="1" stop-color="#470b96"/></linearGradient><path fill="url(#O)" d="M1062.1 0H1400v382.4c-189.5-14.1-338.2-171.9-338.2-364.5 0-6 0-11.9.3-17.9h0z" class="B G"/><linearGradient id="P" gradientUnits="userSpaceOnUse" x1="1231.451" y1="381.142" x2="1231.451" y2="0"><stop offset="0" stop-color="#ba2ba0"/><stop offset="1" stop-color="#470b96"/></linearGradient><path fill="url(#P)" d="M1063.2 0H1400v381.1c-188.8-14-337.1-171.3-337.1-363.3 0-6 0-11.8.3-17.8h0z" class="B H"/><linearGradient id="Q" gradientUnits="userSpaceOnUse" x1="1232.012" y1="379.867" x2="1232.012" y2="0"><stop offset="0" stop-color="#ba2ba0"/><stop offset="1" stop-color="#470b96"/></linearGradient><path fill="url(#Q)" d="M1064.3 0H1400v379.9c-188.2-14-336-170.7-336-362.1a528.33 528.33 0 0 1 .3-17.8h0z" class="B I"/><linearGradient id="R" gradientUnits="userSpaceOnUse" x1="1232.574" y1="378.593" x2="1232.574" y2="0"><stop offset="0" stop-color="#ba2ba0"/><stop offset="1" stop-color="#470b96"/></linearGradient><path fill="url(#R)" d="M1065.4 0H1400v378.6c-187.6-13.9-334.9-170.2-334.9-360.9 0-5.9.1-11.8.3-17.7h0z" class="B J"/><linearGradient id="S" gradientUnits="userSpaceOnUse" x1="1233.135" y1="377.318" x2="1233.135" y2="0"><stop offset="0" stop-color="#ba2ba0"/><stop offset="1" stop-color="#470b96"/></linearGradient><path fill="url(#S)" d="M1066.6 0H1400v377.3c-187-13.9-333.7-169.6-333.7-359.7 0-5.9 0-11.7.3-17.6h0z" class="B K"/><linearGradient id="T" gradientUnits="userSpaceOnUse" x1="1233.697" y1="376.043" x2="1233.697" y2="0"><stop offset="0" stop-color="#ba2ba0"/><stop offset="1" stop-color="#470b96"/></linearGradient><path fill="url(#T)" d="M1067.7 0H1400v376c-186.3-13.9-332.6-169-332.6-358.5 0-5.8 0-11.6.3-17.5h0z" class="B L"/><linearGradient id="U" gradientUnits="userSpaceOnUse" x1="1234.258" y1="374.769" x2="1234.258" y2="0"><stop offset="0" stop-color="#ba2ba0"/><stop offset="1" stop-color="#470b96"/></linearGradient><path fill="url(#U)" d="M1068.8 0H1400v374.8c-185.7-13.8-331.5-168.5-331.5-357.2 0-6 .1-11.7.3-17.6h0z" class="B M"/><linearGradient id="V" gradientUnits="userSpaceOnUse" x1="1234.82" y1="373.494" x2="1234.82" y2="0"><stop offset="0" stop-color="#ba2ba0"/><stop offset="1" stop-color="#470b96"/></linearGradient><path fill="url(#V)" d="M1069.9 0H1400v373.5c-185.1-13.8-330.4-167.9-330.4-356a506.33 506.33 0 0 1 .3-17.5h0z" class="B N"/><linearGradient id="W" gradientUnits="userSpaceOnUse" x1="1235.381" y1="372.22" x2="1235.381" y2="0"><stop offset="0" stop-color="#ba2ba0"/><stop offset="1" stop-color="#470b96"/></linearGradient><path fill="url(#W)" d="M1071 0h329v372.2c-184.5-13.7-329.2-167.3-329.2-354.8L1071 0h0z" class="B O"/><linearGradient id="X" gradientUnits="userSpaceOnUse" x1="1235.943" y1="370.945" x2="1235.943" y2="0"><stop offset="0" stop-color="#ba2ba0"/><stop offset="1" stop-color="#470b96"/></linearGradient><path fill="url(#X)" d="M1072.1 0H1400v370.9c-183.8-13.7-328.1-166.7-328.1-353.6l.2-17.3h0z" class="B P"/><linearGradient id="Y" gradientUnits="userSpaceOnUse" x1="1236.504" y1="369.67" x2="1236.504" y2="0"><stop offset="0" stop-color="#ba2ba0"/><stop offset="1" stop-color="#470b96"/></linearGradient><path fill="url(#Y)" d="M1073.3 0H1400v369.7c-183.2-13.6-327-166.2-327-352.4a499.08 499.08 0 0 1 .3-17.3h0z" class="B Q"/><linearGradient id="Z" gradientUnits="userSpaceOnUse" x1="1237.066" y1="368.396" x2="1237.066" y2="0"><stop offset="0" stop-color="#ba2ba0"/><stop offset="1" stop-color="#470b96"/></linearGradient><path fill="url(#Z)" d="M1074.4 0H1400v368.4c-182.6-13.6-325.9-165.6-325.9-351.2 0-5.8.1-11.5.3-17.2h0z" class="B R"/><linearGradient id="a" gradientUnits="userSpaceOnUse" x1="1237.627" y1="367.121" x2="1237.627" y2="0"><stop offset="0" stop-color="#ba2ba0"/><stop offset="1" stop-color="#470b96"/></linearGradient><path fill="url(#a)" d="M1075.5 0H1400v367.1c-182-13.5-324.7-165-324.7-350 0-5.8.1-11.5.3-17.2h-.1z" class="B S"/><linearGradient id="b" gradientUnits="userSpaceOnUse" x1="1238.189" y1="365.846" x2="1238.189" y2="0"><stop offset="0" stop-color="#ba2ba0"/><stop offset="1" stop-color="#470b96"/></linearGradient><path fill="url(#b)" d="M1076.6 0H1400v365.8c-181.3-13.5-323.6-164.4-323.6-348.7 0-5.7.1-11.4.3-17.1h-.1z" class="B T"/><linearGradient id="c" gradientUnits="userSpaceOnUse" x1="1238.75" y1="364.572" x2="1238.75" y2="0"><stop offset="0" stop-color="#ba2ba0"/><stop offset="1" stop-color="#470b96"/></linearGradient><path fill="url(#c)" d="M1077.7 0H1400v364.6c-180.7-13.4-322.5-163.9-322.5-347.5 0-5.7.1-11.4.3-17h-.1z" class="B U"/><linearGradient id="d" gradientUnits="userSpaceOnUse" x1="1239.312" y1="363.297" x2="1239.312" y2="0"><stop offset="0" stop-color="#ba2ba0"/><stop offset="1" stop-color="#470b96"/></linearGradient><path fill="url(#d)" d="M1078.9 0H1400v363.3C1219.9 349.9 1078.6 200 1078.6 17a481.93 481.93 0 0 1 .3-17h0z" class="B V"/><linearGradient id="e" gradientUnits="userSpaceOnUse" x1="1239.873" y1="362.023" x2="1239.873" y2="0"><stop offset="0" stop-color="#ba2ba0"/><stop offset="1" stop-color="#470b96"/></linearGradient><path fill="url(#e)" d="M1080 0h320v362c-179.5-13.3-320.3-162.7-320.3-345.1 0-5.7.1-11.3.4-16.9h-.1z" class="B W"/><linearGradient id="f" gradientUnits="userSpaceOnUse" x1="1240.435" y1="360.748" x2="1240.435" y2="0"><stop offset="0" stop-color="#ba2ba0"/><stop offset="1" stop-color="#470b96"/></linearGradient><path fill="url(#f)" d="M1081.1 0H1400v360.7c-178.8-13.3-319.1-162.2-319.1-343.9 0-5.7.1-11.3.4-16.9h-.2z" class="B X"/><linearGradient id="g" gradientUnits="userSpaceOnUse" x1="1240.996" y1="359.473" x2="1240.996" y2="0"><stop offset="0" stop-color="#ba2ba0"/><stop offset="1" stop-color="#470b96"/></linearGradient><path fill="url(#g)" d="M1082.2 0H1400v359.5c-178.2-13.2-318-161.6-318-342.7 0-5.6.1-11.2.4-16.8h-.2z" class="B Y"/><linearGradient id="h" gradientUnits="userSpaceOnUse" x1="1241.558" y1="358.199" x2="1241.558" y2="0"><stop offset="0" stop-color="#ba2ba0"/><stop offset="1" stop-color="#470b96"/></linearGradient><path fill="url(#h)" d="M1083.3 0H1400v358.2c-177.6-13.2-316.9-161-316.9-341.4 0-5.6.1-11.2.4-16.8h-.2z" class="B Z"/><linearGradient id="i" gradientUnits="userSpaceOnUse" x1="1242.119" y1="356.924" x2="1242.119" y2="0"><stop offset="0" stop-color="#ba2ba0"/><stop offset="1" stop-color="#470b96"/></linearGradient><path fill="url(#i)" d="M1084.4 0H1400v356.9c-177-13.2-315.8-160.4-315.8-340.2 0-5.6.1-11.2.4-16.7h-.2z" class="B a"/><linearGradient id="j" gradientUnits="userSpaceOnUse" x1="1242.681" y1="355.649" x2="1242.681" y2="0"><stop offset="0" stop-color="#ba2ba0"/><stop offset="1" stop-color="#470b96"/></linearGradient><path fill="url(#j)" d="M1085.6 0H1400v355.6c-176.4-13.1-314.6-159.9-314.6-339 0-5.6.1-11.1.4-16.6h-.2z" class="B b"/><linearGradient id="k" gradientUnits="userSpaceOnUse" x1="1243.242" y1="354.375" x2="1243.242" y2="0"><stop offset="0" stop-color="#ba2ba0"/><stop offset="1" stop-color="#470b96"/></linearGradient><path fill="url(#k)" d="M1086.7 0H1400v354.4c-175.7-13.1-313.5-159.3-313.5-337.8 0-5.6.1-11.1.4-16.6h-.2z" class="B c"/><linearGradient id="l" gradientUnits="userSpaceOnUse" x1="1243.804" y1="353.1" x2="1243.804" y2="0"><stop offset="0" stop-color="#ba2ba0"/><stop offset="1" stop-color="#470b96"/></linearGradient><path fill="url(#l)" d="M1087.8 0H1400v353.1c-175.1-13-312.4-158.7-312.4-336.6 0-5.5.1-11.1.4-16.5h-.2z" class="B d"/><linearGradient id="m" gradientUnits="userSpaceOnUse" x1="1244.365" y1="351.826" x2="1244.365" y2="0"><stop offset="0" stop-color="#ba2ba0"/><stop offset="1" stop-color="#470b96"/></linearGradient><path fill="url(#m)" d="M1088.9 0H1400v351.8c-174.5-13-311.3-158.1-311.3-335.4 0-5.5.1-11 .4-16.5h-.2z" class="B e"/><linearGradient id="n" gradientUnits="userSpaceOnUse" x1="1244.927" y1="350.551" x2="1244.927" y2="0"><stop offset="0" stop-color="#ba2ba0"/><stop offset="1" stop-color="#470b96"/></linearGradient><path fill="url(#n)" d="M1090 0h310v350.6c-173.9-12.9-310.1-157.6-310.1-334.2 0-5.5.1-11 .4-16.4h-.3z" class="B f"/><linearGradient id="o" gradientUnits="userSpaceOnUse" x1="1245.488" y1="349.276" x2="1245.488" y2="0"><stop offset="0" stop-color="#ba2ba0"/><stop offset="1" stop-color="#470b96"/></linearGradient><path fill="url(#o)" d="M1091.1 0H1400v349.3c-173.2-12.9-309-157-309-332.9 0-5.5.1-11 .4-16.3h-.3z" class="B g"/><linearGradient id="p" gradientUnits="userSpaceOnUse" x1="1246.05" y1="348.002" x2="1246.05" y2="0"><stop offset="0" stop-color="#ba2ba0"/><stop offset="1" stop-color="#470b96"/></linearGradient><path fill="url(#p)" d="M1092.3 0H1400v348c-172.6-12.8-307.9-156.4-307.9-331.7 0-5.5.1-10.9.4-16.3h-.2z" class="B h"/><linearGradient id="q" gradientUnits="userSpaceOnUse" x1="1246.611" y1="346.727" x2="1246.611" y2="0"><stop offset="0" stop-color="#ba2ba0"/><stop offset="1" stop-color="#470b96"/></linearGradient><path fill="url(#q)" d="M1093.4 0H1400v346.7c-172-12.8-306.8-155.9-306.8-330.5 0-5.5.1-10.9.4-16.2h-.2z" class="B i"/><linearGradient id="r" gradientUnits="userSpaceOnUse" x1="1247.173" y1="345.453" x2="1247.173" y2="0"><stop offset="0" stop-color="#ba2ba0"/><stop offset="1" stop-color="#470b96"/></linearGradient><path fill="url(#r)" d="M1094.5 0H1400v345.5c-171.4-12.7-305.7-155.3-305.7-329.3 0-5.4.1-10.9.4-16.2h-.2z" class="B j"/><linearGradient id="s" gradientUnits="userSpaceOnUse" x1="1247.734" y1="344.178" x2="1247.734" y2="0"><stop offset="0" stop-color="#ba2ba0"/><stop offset="1" stop-color="#470b96"/></linearGradient><path fill="url(#s)" d="M1095.6 0H1400v344.2c-170.7-12.7-304.5-154.7-304.5-328.1 0-5.4.1-10.8.4-16.1h-.3z" class="B k"/><linearGradient id="t" gradientUnits="userSpaceOnUse" x1="1248.296" y1="342.903" x2="1248.296" y2="0"><stop offset="0" stop-color="#ba2ba0"/><stop offset="1" stop-color="#470b96"/></linearGradient><path fill="url(#t)" d="M1096.7 0H1400v342.9c-170.1-12.6-303.4-154.1-303.4-326.9 0-5.4.1-10.8.4-16h-.3z" class="B l"/><linearGradient id="u" gradientUnits="userSpaceOnUse" x1="1248.857" y1="341.629" x2="1248.857" y2="0"><stop offset="0" stop-color="#ba2ba0"/><stop offset="1" stop-color="#470b96"/></linearGradient><path fill="url(#u)" d="M1097.9 0H1400v341.6C1230.5 329 1097.7 188.1 1097.7 16c0-5.4.1-10.8.4-16h-.2z" class="B m"/><linearGradient id="v" gradientUnits="userSpaceOnUse" x1="1249.419" y1="340.354" x2="1249.419" y2="0"><stop offset="0" stop-color="#ba2ba0"/><stop offset="1" stop-color="#470b96"/></linearGradient><path fill="url(#v)" d="M1099 0h301v340.4c-168.9-12.5-301.2-153-301.2-324.4 0-5.4.1-10.7.4-15.9h-.2z" class="B n"/><linearGradient id="w" gradientUnits="userSpaceOnUse" x1="1249.98" y1="339.079" x2="1249.98" y2="0"><stop offset="0" stop-color="#ba2ba0"/><stop offset="1" stop-color="#470b96"/></linearGradient><path fill="url(#w)" d="M1100.1 0H1400v339.1c-168.2-12.5-300-152.4-300-323.2 0-5.3.1-10.7.4-15.9h-.3z" class="B o"/><linearGradient id="x" gradientUnits="userSpaceOnUse" x1="1250.542" y1="337.805" x2="1250.542" y2="0"><stop offset="0" stop-color="#ba2ba0"/><stop offset="1" stop-color="#470b96"/></linearGradient><path fill="url(#x)" d="M1101.2 0H1400v337.8c-167.6-12.5-298.9-151.8-298.9-322 0-5.3.1-10.7.4-15.8h-.3z" class="B p"/><linearGradient id="y" gradientUnits="userSpaceOnUse" x1="1251.103" y1="336.53" x2="1251.103" y2="0"><stop offset="0" stop-color="#ba2ba0"/><stop offset="1" stop-color="#470b96"/></linearGradient><path fill="url(#y)" d="M1102.3 0H1400v336.5c-167-12.4-297.8-151.3-297.8-320.8 0-5.3.1-10.6.4-15.7h-.3z" class="B q"/><linearGradient id="z" gradientUnits="userSpaceOnUse" x1="1251.665" y1="335.256" x2="1251.665" y2="0"><stop offset="0" stop-color="#ba2ba0"/><stop offset="1" stop-color="#470b96"/></linearGradient><path fill="url(#z)" d="M1103.4 0H1400v335.3c-166.4-12.4-296.7-150.7-296.7-319.6 0-5.3.1-10.6.4-15.7h-.3z" class="B r"/><linearGradient id="AA" gradientUnits="userSpaceOnUse" x1="1252.226" y1="333.981" x2="1252.226" y2="0"><stop offset="0" stop-color="#ba2ba0"/><stop offset="1" stop-color="#470b96"/></linearGradient><path fill="url(#AA)" d="M1104.6 0H1400v334c-165.7-12.3-295.5-150.1-295.5-318.3 0-5.3.1-10.5.4-15.6h-.3z" class="B s"/><linearGradient id="AB" gradientUnits="userSpaceOnUse" x1="1252.788" y1="332.706" x2="1252.788" y2="0"><stop offset="0" stop-color="#ba2ba0"/><stop offset="1" stop-color="#470b96"/></linearGradient><path fill="url(#AB)" d="M1105.7 0H1400v332.7c-165.1-12.3-294.4-149.6-294.4-317.1 0-5.2.1-10.5.4-15.6h-.3z" class="B t"/><linearGradient id="AC" gradientUnits="userSpaceOnUse" x1="1253.349" y1="331.432" x2="1253.349" y2="0"><stop offset="0" stop-color="#ba2ba0"/><stop offset="1" stop-color="#470b96"/></linearGradient><path fill="url(#AC)" d="M1106.8 0H1400v331.4c-164.5-12.2-293.3-149-293.3-315.9 0-5.2.1-10.5.4-15.5h-.3z" class="B u"/><linearGradient id="AD" gradientUnits="userSpaceOnUse" x1="1253.911" y1="330.157" x2="1253.911" y2="0"><stop offset="0" stop-color="#ba2ba0"/><stop offset="1" stop-color="#470b96"/></linearGradient><path fill="url(#AD)" d="M1107.9 0H1400v330.2c-163.9-12.2-292.2-148.4-292.2-314.7 0-5.2.1-10.4.4-15.5h-.3z" class="B v"/><linearGradient id="AE" gradientUnits="userSpaceOnUse" x1="1254.472" y1="328.883" x2="1254.472" y2="0"><stop offset="0" stop-color="#ba2ba0"/><stop offset="1" stop-color="#470b96"/></linearGradient><path opacity=".48" fill="url(#AE)" d="M1109 0h291v328.9c-163.2-12.1-291.1-147.8-291.1-313.5 0-5.2.1-10.4.4-15.4h-.3z" class="B"/><linearGradient id="AF" gradientUnits="userSpaceOnUse" x1="1255.034" y1="327.608" x2="1255.034" y2="0"><stop offset="0" stop-color="#ba2ba0"/><stop offset="1" stop-color="#470b96"/></linearGradient><path opacity=".49" fill="url(#AF)" d="M1110.2 0H1400v327.6c-162.6-12.1-289.9-147.3-289.9-312.3 0-5.2.1-10.4.4-15.3h-.3z" class="B"/><linearGradient id="AG" gradientUnits="userSpaceOnUse" x1="1255.595" y1="326.333" x2="1255.595" y2="0"><stop offset="0" stop-color="#ba2ba0"/><stop offset="1" stop-color="#470b96"/></linearGradient><path opacity=".5" fill="url(#AG)" d="M1111.3 0H1400v326.3c-162-12-288.8-146.7-288.8-311.1 0-5.1.1-10.3.4-15.3h-.3z" class="B"/><linearGradient id="AH" gradientUnits="userSpaceOnUse" x1="1255.69" y1="326.333" x2="1255.69" y2="0"><stop offset="0" stop-color="#ba2ba0"/><stop offset="1" stop-color="#470b96"/></linearGradient><path fill="url(#AH)" d="M1111.6 0H1400v326.3c-161.7-12-288.6-146.7-288.6-311.1l.2-15.2h0z" class="B"/><linearGradient id="AI" gradientUnits="userSpaceOnUse" x1="1285.672" y1="312.444" x2="1285.672" y2="53.961"><stop offset="0" stop-color="#ba2ba0"/><stop offset="1" stop-color="#470b96"/></linearGradient><path fill="url(#AI)" d="M1400 312.4c-45.7-.6-44.4-29.1-71-38.1-18.8-6.3-76.8-.1-79.3-24.1-1.7-16.7 7.4-34.9-3-49.9-13.4-19.3-58.5-8.6-68-31.1-16.3-38.6.2-58.1-2.9-92-4.7-50 161.2 24.1 224.2-23.2v258.4z" class="B"/><linearGradient id="AJ" gradientUnits="userSpaceOnUse" x1="1265.151" y1="233.275" x2="1265.151" y2="0"><stop offset="0" stop-color="#ba2ba0"/><stop offset="1" stop-color="#470b96"/></linearGradient><path fill="url(#AJ)" d="M1130.3 0H1400v127.6c-11.1-10.7-28.7-12.9-41.4-4.4-14.2 9.6-17.1 28.9-6.4 43.3s31 18.3 45.2 8.7c.8-.6 1.3-1.2 2.5-1.8v56c-50.6-19.9-84.4-10-115.1-38.1-22.2-20.3-21.4-47.6-48.8-68.5-23.2-17.8-70.2-12.2-86.8-34.2-18.5-24.9-16.2-55.3-18.9-88.6h0zm182.4 225.7c-2.5 1.6-6 1-7.9-1.5s-1.4-5.9 1.1-7.6c2.5-1.6 6-1 7.9 1.5s1.4 5.9-1.1 7.6h0zm-21.1 6.1c-3.9 2.6-9.5 1.6-12.5-2.4s-2.2-9.3 1.7-11.9 9.5-1.5 12.5 2.4c3 4 2.2 9.3-1.7 11.9h0zm-63.6-63.9c-2.2 1.5-5.3.9-6.9-1.3s-1.2-5.1 1-6.6 5.2-.9 6.9 1.3c1.6 2.2 1.2 5.1-1 6.6h0zm-30.7-34c6.3-4.2 15.2-2.5 19.9 3.8s3.5 14.9-2.8 19.1-15.2 2.5-19.9-3.8c-4.7-6.4-3.4-14.9 2.8-19.1h0zm-35.4-65.1c3.8-2.6 9.2-1.5 12 2.3 2.9 3.8 2.1 9-1.7 11.5-3.7 2.5-9.1 1.5-12-2.3-2.8-3.8-2-9 1.7-11.5h0zm-1.4-43.2c3.8-2.6 9.1-1.5 12 2.3 2.8 3.8-4 17.9-7.8 20.5-3.7 2.5-10.6-5.5-5.9-11.3s-2.1-9 1.7-11.5h0z" class="B"/><linearGradient id="AK" gradientUnits="userSpaceOnUse" x1="1289.42" y1="145.687" x2="1289.42" y2="0"><stop offset="0" stop-color="#ba2ba0"/><stop offset="1" stop-color="#470b96"/></linearGradient><path fill="url(#AK)" d="M1178.8 0h135.4c-1.3 8.6.7 17.4 6.1 25.1 10.7 15.1 30.9 19.2 45.1 9.2 10.9-7.7 15-22 11.6-34.4h22.9v107.9c-34.6-9.4-48.7 5.5-71.5-3.6-16.9-6.7-19.6-31.7-42.9-46.6-15.3-9.9-46.7 4.9-60.6-16.1-16.2-24.6-45.1-18-46.1-41.5h0zm38.7 73.3c-2.1 1.5-5 .8-6.6-1.4s-1.2-5.2.9-6.7 5-.8 6.6 1.4 1.2 5.2-.9 6.7h0zm70.2 31.5c-2.1 1.5-5 .9-6.6-1.3s-1.2-5.2.9-6.7 5-.9 6.6 1.4c1.6 2.2 1.2 5.2-.9 6.6h0zm41.8 40.1c-2.1 1.5-5 .8-6.6-1.4s-1.2-5.2.9-6.7 5-.8 6.6 1.4 1.2 5.2-.9 6.7h0zm-41-58.8c-3.5 2.5-8.5 1.5-11.2-2.3-2.6-3.7-1.9-8.8 1.6-11.3s8.5-1.5 11.2 2.3 1.9 8.9-1.6 11.3h0zm60.3 3.5c-3.5 2.5-8.5 1.5-11.2-2.3-2.7-3.7-2-8.8 1.5-11.3s8.5-1.5 11.2 2.3 2 8.9-1.5 11.3h0z" class="B"/><linearGradient id="AL" gradientUnits="userSpaceOnUse" x1="836.741" y1="468.205" x2="836.741" y2="201.22"><stop offset="0" stop-color="#ff4998"/><stop offset="1" stop-color="#5600ac"/></linearGradient><path opacity="0" fill="url(#AL)" d="M836.7 468.2c73.6 0 133.5-60 133.5-133.5s-60-133.5-133.5-133.5-133.5 60-133.5 133.5 60 133.5 133.5 133.5h0z" class="B"/><linearGradient id="AM" gradientUnits="userSpaceOnUse" x1="836.741" y1="467.489" x2="836.741" y2="201.935"><stop offset="0" stop-color="#ff4998"/><stop offset="1" stop-color="#5600ac"/></linearGradient><path opacity=".01" fill="url(#AM)" d="M836.7 467.5c73.2 0 132.8-59.6 132.8-132.8 0-73.1-59.7-132.8-132.8-132.8s-132.8 59.6-132.8 132.8c0 73.1 59.7 132.8 132.8 132.8h0z" class="B"/><linearGradient id="AN" gradientUnits="userSpaceOnUse" x1="836.741" y1="466.774" x2="836.741" y2="202.65"><stop offset="0" stop-color="#ff4998"/><stop offset="1" stop-color="#5600ac"/></linearGradient><path opacity=".02" fill="url(#AN)" d="M836.7 466.8c72.8 0 132.1-59.3 132.1-132.1 0-72.7-59.3-132-132.1-132-72.7 0-132.1 59.3-132.1 132S764 466.8 836.7 466.8h0z" class="B"/><linearGradient id="AO" gradientUnits="userSpaceOnUse" x1="836.741" y1="466.058" x2="836.741" y2="203.365"><stop offset="0" stop-color="#ff4998"/><stop offset="1" stop-color="#5600ac"/></linearGradient><path fill="url(#AO)" d="M836.7 466.1c72.4 0 131.4-59 131.4-131.4 0-72.3-59-131.3-131.4-131.3-72.3 0-131.4 59-131.4 131.3.1 72.4 59.1 131.4 131.4 131.4h0z" class="B C"/><linearGradient id="AP" gradientUnits="userSpaceOnUse" x1="836.741" y1="465.343" x2="836.741" y2="204.08"><stop offset="0" stop-color="#ff4998"/><stop offset="1" stop-color="#5600ac"/></linearGradient><path fill="url(#AP)" d="M836.7 465.3c72 0 130.7-58.7 130.7-130.6s-58.7-130.6-130.7-130.6-130.6 58.7-130.6 130.6c0 72 58.7 130.6 130.6 130.6h0z" class="B D"/><linearGradient id="AQ" gradientUnits="userSpaceOnUse" x1="836.741" y1="464.627" x2="836.741" y2="204.795"><stop offset="0" stop-color="#ff4998"/><stop offset="1" stop-color="#5600ac"/></linearGradient><path fill="url(#AQ)" d="M836.7 464.6c71.6 0 130-58.4 130-129.9s-58.4-129.9-130-129.9-129.9 58.4-129.9 129.9c0 71.6 58.4 129.9 129.9 129.9h0z" class="B E"/><linearGradient id="AR" gradientUnits="userSpaceOnUse" x1="836.741" y1="463.912" x2="836.741" y2="205.509"><stop offset="0" stop-color="#ff4998"/><stop offset="1" stop-color="#5600ac"/></linearGradient><path fill="url(#AR)" d="M836.7 463.9c71.2 0 129.2-58 129.2-129.2 0-71.1-58.1-129.2-129.2-129.2-71.2 0-129.2 58-129.2 129.2s58.1 129.2 129.2 129.2h0z" class="B F"/><linearGradient id="AS" gradientUnits="userSpaceOnUse" x1="836.741" y1="463.196" x2="836.741" y2="206.224"><stop offset="0" stop-color="#ff4998"/><stop offset="1" stop-color="#5600ac"/></linearGradient><path fill="url(#AS)" d="M836.7 463.2c70.8 0 128.5-57.7 128.5-128.5s-57.7-128.5-128.5-128.5-128.5 57.7-128.5 128.5S766 463.2 836.7 463.2h0z" class="B G"/><linearGradient id="AT" gradientUnits="userSpaceOnUse" x1="836.741" y1="462.481" x2="836.741" y2="206.939"><stop offset="0" stop-color="#ff4998"/><stop offset="1" stop-color="#5600ac"/></linearGradient><path fill="url(#AT)" d="M836.7 462.5c70.4 0 127.8-57.4 127.8-127.8s-57.4-127.8-127.8-127.8-127.8 57.4-127.8 127.8 57.4 127.8 127.8 127.8h0z" class="B H"/><linearGradient id="AU" gradientUnits="userSpaceOnUse" x1="836.741" y1="461.765" x2="836.741" y2="207.654"><stop offset="0" stop-color="#ff4998"/><stop offset="1" stop-color="#5600ac"/></linearGradient><path fill="url(#AU)" d="M836.7 461.8c70 0 127.1-57.1 127.1-127.1s-57.1-127-127.1-127-127.1 57.1-127.1 127c.1 70 57.1 127.1 127.1 127.1h0z" class="B I"/><linearGradient id="AV" gradientUnits="userSpaceOnUse" x1="836.741" y1="461.05" x2="836.741" y2="208.369"><stop offset="0" stop-color="#ff4998"/><stop offset="1" stop-color="#5600ac"/></linearGradient><path fill="url(#AV)" d="M836.7 461c69.6 0 126.4-56.8 126.4-126.4s-56.8-126.3-126.4-126.3-126.4 56.8-126.4 126.3c.1 69.7 56.8 126.4 126.4 126.4h0z" class="B J"/><linearGradient id="AW" gradientUnits="userSpaceOnUse" x1="836.741" y1="460.334" x2="836.741" y2="209.084"><stop offset="0" stop-color="#ff4998"/><stop offset="1" stop-color="#5600ac"/></linearGradient><path fill="url(#AW)" d="M836.7 460.3c69.2 0 125.7-56.4 125.7-125.6S906 209.1 836.7 209.1c-69.2 0-125.6 56.4-125.6 125.6s56.4 125.6 125.6 125.6h0z" class="B K"/><linearGradient id="AX" gradientUnits="userSpaceOnUse" x1="836.741" y1="459.619" x2="836.741" y2="209.798"><stop offset="0" stop-color="#ff4998"/><stop offset="1" stop-color="#5600ac"/></linearGradient><path fill="url(#AX)" d="M836.7 459.6c68.8 0 125-56.1 125-124.9s-56.1-124.9-125-124.9c-68.8 0-124.9 56.1-124.9 124.9s56.1 124.9 124.9 124.9h0z" class="B L"/><linearGradient id="AY" gradientUnits="userSpaceOnUse" x1="836.741" y1="458.903" x2="836.741" y2="210.513"><stop offset="0" stop-color="#ff4998"/><stop offset="1" stop-color="#5600ac"/></linearGradient><path fill="url(#AY)" d="M836.7 458.9c68.4 0 124.2-55.8 124.2-124.2s-55.8-124.2-124.2-124.2-124.2 55.8-124.2 124.2 55.8 124.2 124.2 124.2h0z" class="B M"/><linearGradient id="AZ" gradientUnits="userSpaceOnUse" x1="836.741" y1="458.188" x2="836.741" y2="211.228"><stop offset="0" stop-color="#ff4998"/><stop offset="1" stop-color="#5600ac"/></linearGradient><path fill="url(#AZ)" d="M836.7 458.2c68 0 123.5-55.5 123.5-123.5s-55.5-123.5-123.5-123.5-123.5 55.5-123.5 123.5 55.5 123.5 123.5 123.5h0z" class="B N"/><linearGradient id="Aa" gradientUnits="userSpaceOnUse" x1="836.741" y1="457.472" x2="836.741" y2="211.943"><stop offset="0" stop-color="#ff4998"/><stop offset="1" stop-color="#5600ac"/></linearGradient><path fill="url(#Aa)" d="M836.7 457.5c67.7 0 122.8-55.1 122.8-122.8 0-67.6-55.2-122.8-122.8-122.8s-122.8 55.2-122.8 122.8c.1 67.6 55.2 122.8 122.8 122.8h0z" class="B O"/><linearGradient id="Ab" gradientUnits="userSpaceOnUse" x1="836.741" y1="456.757" x2="836.741" y2="212.658"><stop offset="0" stop-color="#ff4998"/><stop offset="1" stop-color="#5600ac"/></linearGradient><path fill="url(#Ab)" d="M836.7 456.8c67.3 0 122.1-54.8 122.1-122.1 0-67.2-54.8-122-122.1-122-67.2 0-122.1 54.8-122.1 122 .1 67.2 54.9 122.1 122.1 122.1h0z" class="B P"/><linearGradient id="Ac" gradientUnits="userSpaceOnUse" x1="836.741" y1="456.041" x2="836.741" y2="213.373"><stop offset="0" stop-color="#ff4998"/><stop offset="1" stop-color="#5600ac"/></linearGradient><path fill="url(#Ac)" d="M836.7 456c66.9 0 121.4-54.5 121.4-121.3s-54.5-121.3-121.4-121.3c-66.8 0-121.3 54.5-121.3 121.3S769.9 456 836.7 456h0z" class="B Q"/><linearGradient id="Ad" gradientUnits="userSpaceOnUse" x1="836.741" y1="455.326" x2="836.741" y2="214.087"><stop offset="0" stop-color="#ff4998"/><stop offset="1" stop-color="#5600ac"/></linearGradient><path fill="url(#Ad)" d="M836.7 455.3c66.5 0 120.7-54.2 120.7-120.6s-54.2-120.6-120.7-120.6c-66.4 0-120.6 54.2-120.6 120.6s54.2 120.6 120.6 120.6h0z" class="B R"/><linearGradient id="Ae" gradientUnits="userSpaceOnUse" x1="836.741" y1="454.61" x2="836.741" y2="214.802"><stop offset="0" stop-color="#ff4998"/><stop offset="1" stop-color="#5600ac"/></linearGradient><path fill="url(#Ae)" d="M836.7 454.6c66.1 0 119.9-53.9 119.9-119.9s-53.9-119.9-119.9-119.9-119.9 53.9-119.9 119.9c0 66.1 53.9 119.9 119.9 119.9h0z" class="B S"/><linearGradient id="Af" gradientUnits="userSpaceOnUse" x1="836.741" y1="453.894" x2="836.741" y2="215.517"><stop offset="0" stop-color="#ff4998"/><stop offset="1" stop-color="#5600ac"/></linearGradient><path fill="url(#Af)" d="M836.7 453.9c65.7 0 119.2-53.5 119.2-119.2 0-65.6-53.5-119.2-119.2-119.2-65.6 0-119.2 53.5-119.2 119.2s53.6 119.2 119.2 119.2h0z" class="B T"/><linearGradient id="Ag" gradientUnits="userSpaceOnUse" x1="836.741" y1="453.179" x2="836.741" y2="216.232"><stop offset="0" stop-color="#ff4998"/><stop offset="1" stop-color="#5600ac"/></linearGradient><path fill="url(#Ag)" d="M836.7 453.2c65.3 0 118.5-53.2 118.5-118.5 0-65.2-53.2-118.5-118.5-118.5s-118.5 53.2-118.5 118.5 53.3 118.5 118.5 118.5h0z" class="B U"/><linearGradient id="Ah" gradientUnits="userSpaceOnUse" x1="836.741" y1="452.463" x2="836.741" y2="216.947"><stop offset="0" stop-color="#ff4998"/><stop offset="1" stop-color="#5600ac"/></linearGradient><path fill="url(#Ah)" d="M836.7 452.5c64.9 0 117.8-52.9 117.8-117.8 0-64.8-52.9-117.7-117.8-117.7s-117.8 52.9-117.8 117.7c.1 64.9 53 117.8 117.8 117.8h0z" class="B V"/><linearGradient id="Ai" gradientUnits="userSpaceOnUse" x1="836.741" y1="451.748" x2="836.741" y2="217.661"><stop offset="0" stop-color="#ff4998"/><stop offset="1" stop-color="#5600ac"/></linearGradient><path fill="url(#Ai)" d="M836.7 451.7c64.5 0 117.1-52.6 117.1-117.1s-52.6-117-117.1-117-117 52.6-117 117c0 64.6 52.6 117.1 117 117.1h0z" class="B W"/><linearGradient id="Aj" gradientUnits="userSpaceOnUse" x1="836.741" y1="451.032" x2="836.741" y2="218.376"><stop offset="0" stop-color="#ff4998"/><stop offset="1" stop-color="#5600ac"/></linearGradient><path fill="url(#Aj)" d="M836.7 451c64.1 0 116.4-52.2 116.4-116.3s-52.3-116.3-116.4-116.3-116.3 52.3-116.3 116.3c0 64.1 52.3 116.3 116.3 116.3h0z" class="B X"/><linearGradient id="Ak" gradientUnits="userSpaceOnUse" x1="836.741" y1="450.317" x2="836.741" y2="219.091"><stop offset="0" stop-color="#ff4998"/><stop offset="1" stop-color="#5600ac"/></linearGradient><path fill="url(#Ak)" d="M836.7 450.3c63.7 0 115.7-51.9 115.7-115.6s-51.9-115.6-115.7-115.6c-63.7 0-115.6 51.9-115.6 115.6S773 450.3 836.7 450.3h0z" class="B Y"/><linearGradient id="Al" gradientUnits="userSpaceOnUse" x1="836.741" y1="449.601" x2="836.741" y2="219.806"><stop offset="0" stop-color="#ff4998"/><stop offset="1" stop-color="#5600ac"/></linearGradient><path fill="url(#Al)" d="M836.7 449.6c63.3 0 114.9-51.6 114.9-114.9S900 219.8 836.7 219.8s-114.9 51.6-114.9 114.9 51.6 114.9 114.9 114.9h0z" class="B Z"/><linearGradient id="Am" gradientUnits="userSpaceOnUse" x1="836.741" y1="448.886" x2="836.741" y2="220.521"><stop offset="0" stop-color="#ff4998"/><stop offset="1" stop-color="#5600ac"/></linearGradient><path fill="url(#Am)" d="M836.7 448.9c62.9 0 114.2-51.3 114.2-114.2s-51.3-114.2-114.2-114.2-114.2 51.3-114.2 114.2 51.3 114.2 114.2 114.2h0z" class="B a"/><linearGradient id="An" gradientUnits="userSpaceOnUse" x1="836.741" y1="448.17" x2="836.741" y2="221.236"><stop offset="0" stop-color="#ff4998"/><stop offset="1" stop-color="#5600ac"/></linearGradient><path fill="url(#An)" d="M836.7 448.2c62.5 0 113.5-51 113.5-113.5s-51-113.5-113.5-113.5-113.5 51-113.5 113.5c.1 62.5 51 113.5 113.5 113.5h0z" class="B b"/><linearGradient id="Ao" gradientUnits="userSpaceOnUse" x1="836.741" y1="447.455" x2="836.741" y2="221.95"><stop offset="0" stop-color="#ff4998"/><stop offset="1" stop-color="#5600ac"/></linearGradient><path fill="url(#Ao)" d="M836.7 447.5c62.1 0 112.8-50.6 112.8-112.8 0-62.1-50.6-112.7-112.8-112.7-62.1 0-112.7 50.6-112.7 112.7s50.6 112.8 112.7 112.8h0z" class="B c"/><linearGradient id="Ap" gradientUnits="userSpaceOnUse" x1="836.741" y1="446.739" x2="836.741" y2="222.665"><stop offset="0" stop-color="#ff4998"/><stop offset="1" stop-color="#5600ac"/></linearGradient><path fill="url(#Ap)" d="M836.7 446.7c61.7 0 112.1-50.3 112.1-112s-50.3-112-112.1-112c-61.7 0-112 50.3-112 112s50.3 112 112 112h0z" class="B d"/><linearGradient id="Aq" gradientUnits="userSpaceOnUse" x1="836.741" y1="446.024" x2="836.741" y2="223.38"><stop offset="0" stop-color="#ff4998"/><stop offset="1" stop-color="#5600ac"/></linearGradient><path fill="url(#Aq)" d="M836.7 446c61.4 0 111.4-50 111.4-111.3s-50-111.3-111.4-111.3c-61.3 0-111.3 50-111.3 111.3S775.4 446 836.7 446h0z" class="B e"/><linearGradient id="Ar" gradientUnits="userSpaceOnUse" x1="836.741" y1="445.308" x2="836.741" y2="224.095"><stop offset="0" stop-color="#ff4998"/><stop offset="1" stop-color="#5600ac"/></linearGradient><path fill="url(#Ar)" d="M836.7 445.3c61 0 110.6-49.7 110.6-110.6s-49.7-110.6-110.6-110.6-110.6 49.7-110.6 110.6 49.7 110.6 110.6 110.6h0z" class="B f"/><linearGradient id="As" gradientUnits="userSpaceOnUse" x1="836.741" y1="444.593" x2="836.741" y2="224.81"><stop offset="0" stop-color="#ff4998"/><stop offset="1" stop-color="#5600ac"/></linearGradient><path fill="url(#As)" d="M836.7 444.6c60.6 0 109.9-49.3 109.9-109.9 0-60.5-49.4-109.9-109.9-109.9s-109.9 49.4-109.9 109.9 49.4 109.9 109.9 109.9h0z" class="B g"/><linearGradient id="At" gradientUnits="userSpaceOnUse" x1="836.741" y1="443.877" x2="836.741" y2="225.525"><stop offset="0" stop-color="#ff4998"/><stop offset="1" stop-color="#5600ac"/></linearGradient><path fill="url(#At)" d="M836.7 443.9c60.2 0 109.2-49 109.2-109.2 0-60.1-49-109.2-109.2-109.2-60.1 0-109.2 49.1-109.2 109.2s49.1 109.2 109.2 109.2h0z" class="B h"/><linearGradient id="Au" gradientUnits="userSpaceOnUse" x1="836.741" y1="443.162" x2="836.741" y2="226.239"><stop offset="0" stop-color="#ff4998"/><stop offset="1" stop-color="#5600ac"/></linearGradient><path fill="url(#Au)" d="M836.7 443.2c59.8 0 108.5-48.7 108.5-108.5 0-59.7-48.7-108.5-108.5-108.5-59.7 0-108.5 48.7-108.5 108.5.1 59.8 48.8 108.5 108.5 108.5h0z" class="B i"/><linearGradient id="Av" gradientUnits="userSpaceOnUse" x1="836.741" y1="442.446" x2="836.741" y2="226.954"><stop offset="0" stop-color="#ff4998"/><stop offset="1" stop-color="#5600ac"/></linearGradient><path fill="url(#Av)" d="M836.7 442.4c59.4 0 107.8-48.4 107.8-107.8 0-59.3-48.4-107.7-107.8-107.7-59.3.1-107.7 48.5-107.7 107.8 0 59.4 48.4 107.7 107.7 107.7h0z" class="B j"/><linearGradient id="Aw" gradientUnits="userSpaceOnUse" x1="836.741" y1="441.731" x2="836.741" y2="227.669"><stop offset="0" stop-color="#ff4998"/><stop offset="1" stop-color="#5600ac"/></linearGradient><path fill="url(#Aw)" d="M836.7 441.7c59 0 107.1-48.1 107.1-107s-48.1-107-107.1-107-107 48.1-107 107c0 59 48.1 107 107 107h0z" class="B k"/><linearGradient id="Ax" gradientUnits="userSpaceOnUse" x1="836.741" y1="441.015" x2="836.741" y2="228.384"><stop offset="0" stop-color="#ff4998"/><stop offset="1" stop-color="#5600ac"/></linearGradient><path fill="url(#Ax)" d="M836.7 441c58.6 0 106.3-47.7 106.3-106.3 0-58.5-47.8-106.3-106.3-106.3-58.6 0-106.3 47.8-106.3 106.3 0 58.6 47.8 106.3 106.3 106.3h0z" class="B l"/><linearGradient id="Ay" gradientUnits="userSpaceOnUse" x1="836.741" y1="440.3" x2="836.741" y2="229.099"><stop offset="0" stop-color="#ff4998"/><stop offset="1" stop-color="#5600ac"/></linearGradient><path fill="url(#Ay)" d="M836.7 440.3c58.2 0 105.6-47.4 105.6-105.6s-47.4-105.6-105.6-105.6-105.6 47.4-105.6 105.6 47.5 105.6 105.6 105.6h0z" class="B m"/><linearGradient id="Az" gradientUnits="userSpaceOnUse" x1="836.741" y1="439.584" x2="836.741" y2="229.814"><stop offset="0" stop-color="#ff4998"/><stop offset="1" stop-color="#5600ac"/></linearGradient><path fill="url(#Az)" d="M836.7 439.6c57.8 0 104.9-47.1 104.9-104.9s-47.1-104.9-104.9-104.9-104.9 47.1-104.9 104.9S779 439.6 836.7 439.6h0z" class="B n"/><linearGradient id="BA" gradientUnits="userSpaceOnUse" x1="836.741" y1="438.869" x2="836.741" y2="230.528"><stop offset="0" stop-color="#ff4998"/><stop offset="1" stop-color="#5600ac"/></linearGradient><path fill="url(#BA)" d="M836.7 438.9c57.4 0 104.2-46.8 104.2-104.2s-46.8-104.2-104.2-104.2-104.2 46.8-104.2 104.2c.1 57.4 46.8 104.2 104.2 104.2h0z" class="B o"/><linearGradient id="BB" gradientUnits="userSpaceOnUse" x1="836.741" y1="438.153" x2="836.741" y2="231.243"><stop offset="0" stop-color="#ff4998"/><stop offset="1" stop-color="#5600ac"/></linearGradient><path fill="url(#BB)" d="M836.7 438.2c57 0 103.5-46.5 103.5-103.5s-46.5-103.5-103.5-103.5-103.4 46.5-103.4 103.5 46.4 103.5 103.4 103.5h0z" class="B p"/><linearGradient id="BC" gradientUnits="userSpaceOnUse" x1="836.741" y1="437.438" x2="836.741" y2="231.958"><stop offset="0" stop-color="#ff4998"/><stop offset="1" stop-color="#5600ac"/></linearGradient><path fill="url(#BC)" d="M836.7 437.4c56.6 0 102.8-46.1 102.8-102.7S893.4 232 836.7 232C780.1 232 734 278.1 734 334.7s46.1 102.7 102.7 102.7h0z" class="B q"/><linearGradient id="BD" gradientUnits="userSpaceOnUse" x1="836.741" y1="436.722" x2="836.741" y2="232.673"><stop offset="0" stop-color="#ff4998"/><stop offset="1" stop-color="#5600ac"/></linearGradient><path fill="url(#BD)" d="M836.7 436.7c56.2 0 102.1-45.8 102.1-102s-45.8-102-102.1-102c-56.2 0-102 45.8-102 102s45.8 102 102 102h0z" class="B r"/><linearGradient id="BE" gradientUnits="userSpaceOnUse" x1="836.741" y1="436.007" x2="836.741" y2="233.388"><stop offset="0" stop-color="#ff4998"/><stop offset="1" stop-color="#5600ac"/></linearGradient><path fill="url(#BE)" d="M836.7 436c55.8 0 101.3-45.5 101.3-101.3s-45.5-101.3-101.3-101.3-101.3 45.5-101.3 101.3S780.9 436 836.7 436h0z" class="B s"/><linearGradient id="BF" gradientUnits="userSpaceOnUse" x1="836.741" y1="435.291" x2="836.741" y2="234.102"><stop offset="0" stop-color="#ff4998"/><stop offset="1" stop-color="#5600ac"/></linearGradient><path fill="url(#BF)" d="M836.7 435.3c55.4 0 100.6-45.2 100.6-100.6s-45.2-100.6-100.6-100.6-100.6 45.2-100.6 100.6 45.2 100.6 100.6 100.6h0z" class="B t"/><linearGradient id="BG" gradientUnits="userSpaceOnUse" x1="836.741" y1="434.576" x2="836.741" y2="234.817"><stop offset="0" stop-color="#ff4998"/><stop offset="1" stop-color="#5600ac"/></linearGradient><path fill="url(#BG)" d="M836.7 434.6c55 0 99.9-44.8 99.9-99.9 0-55-44.9-99.9-99.9-99.9s-99.9 44.9-99.9 99.9c.1 55 44.9 99.9 99.9 99.9h0z" class="B u"/><linearGradient id="BH" gradientUnits="userSpaceOnUse" x1="836.741" y1="433.86" x2="836.741" y2="235.532"><stop offset="0" stop-color="#ff4998"/><stop offset="1" stop-color="#5600ac"/></linearGradient><path fill="url(#BH)" d="M836.7 433.9c54.7 0 99.2-44.5 99.2-99.2 0-54.6-44.5-99.2-99.2-99.2-54.6 0-99.2 44.6-99.2 99.2.1 54.6 44.6 99.2 99.2 99.2h0z" class="B v"/><linearGradient id="BI" gradientUnits="userSpaceOnUse" x1="836.741" y1="433.145" x2="836.741" y2="236.247"><stop offset="0" stop-color="#ff4998"/><stop offset="1" stop-color="#5600ac"/></linearGradient><path opacity=".48" fill="url(#BI)" d="M836.7 433.1c54.3 0 98.5-44.2 98.5-98.4s-44.2-98.4-98.5-98.4c-54.2 0-98.4 44.2-98.4 98.4s44.2 98.4 98.4 98.4h0z" class="B"/><linearGradient id="BJ" gradientUnits="userSpaceOnUse" x1="836.741" y1="432.429" x2="836.741" y2="236.962"><stop offset="0" stop-color="#ff4998"/><stop offset="1" stop-color="#5600ac"/></linearGradient><path opacity=".49" fill="url(#BJ)" d="M836.7 432.4c53.9 0 97.8-43.9 97.8-97.7S890.6 237 836.7 237c-53.8 0-97.7 43.9-97.7 97.7s43.9 97.7 97.7 97.7h0z" class="B"/><linearGradient id="BK" gradientUnits="userSpaceOnUse" x1="836.741" y1="431.713" x2="836.741" y2="237.677"><stop offset="0" stop-color="#ff4998"/><stop offset="1" stop-color="#5600ac"/></linearGradient><use xlink:href="#Dk" opacity=".5" fill="url(#BK)" class="B"/><linearGradient id="BL" gradientUnits="userSpaceOnUse" x1="836.741" y1="431.714" x2="836.741" y2="237.677"><stop offset="0" stop-color="#ff4998"/><stop offset="1" stop-color="#5600ac"/></linearGradient><use xlink:href="#Dk" fill="url(#BL)" class="B"/><linearGradient id="BM" gradientUnits="userSpaceOnUse" x1="836.741" y1="431.714" x2="836.741" y2="237.957"><stop offset="0" stop-color="#ff7c58"/><stop offset="1" stop-color="#720bda"/></linearGradient><path fill="url(#BM)" d="M739.8 338.9l-.1-4.2c0-5.6.5-11 1.4-16.4 3.4-2.9 7.5-6.8 8.6-18.3 1.3-13.5 34.2 16.3 45.5 8.8 11.9-7.9 3.7-28.8 9.8-41.6 2.6-5.4 12-4.6 14.8-9.8 2.4-4.5 1.2-11.8.5-18.3 3-.5 6.1-.9 9.1-1.1-2.9 8.3 4.7 27.7-.8 35.5-3.2 4.5-11.1.4-16.6 1.2-9.3 1.3-1.6 24.3-7 50.6-2.1 10.4 5 16.7 11 18.2 5.5 1.3 2.6 28.4 15.6 8 5.1-8 6.6-38.1-7.3-21.7-3.6 4.2-12.6-5.1-7.1-15.1 3.3-5.9 12.1-11.4 18.3-8.8 7.9 3.2 14.2 9.7 6.7 23.8-6.2 11.5-6.9 40.2-19.3 44.3-11.7 3.8-6.7-26-17.3-32.2-4.7-2.7-11.8-.2-15.7-4-4.2-4.1-1.2-12.7-5.5-16.8-5.3-5.1-14.3-12.1-20.5-8.1-10.1 6.8-24 18.4-16.4 28 3.9 4.9 12.8 9.5 15.4 6.9 9.8-9.9-4.5-14.9-.3-17.7 2.5-1.7 10.8-2.5 15 3.8 3.7 5.6.7 23.8-5.9 25.1-11.4 2.2-25.4-8.5-31.9-20.1h0zM844.1 238c2.5.2 5 .5 7.4.8-.8.5-1.7 1-2.4 1.5-7.3 5.7-10.1 7.7-7 16.7 1.1 3.3 2.3 6.6 1.5 10.1-.5 2.1.8 4.1 2 5.9 15 22.8-21.5 11.6-23.1 18.8-1.2 5.2 15.6 3.8 17.1 3.8 9.3-.1 19.5-.3 25.8 3.6 7 4.3-4.9 14.5-5.3 17.5-.8 6.1 8.2 5.5 11.7 7.6 2.3 1.4 4.8 2.1 6.8 1.2 2.8-1.3 2.1-4.4 2.8-8 .7-3.7 3.7-14.1.1-17.2-3.8-3.4-.8 4.5-4.4 4.1-10.1-1.2 2.4 8.3 1.5 10.9-2.7 7.4-10.7-2.7-8.3-9.3 1.3-3.7-1.4-11.8 2.4-13.5 5.4-2.4 7.2 2.8 11.7 5.6 6.4 4.1 0 12.9-1.2 19.4-.9 5.1 2 10.4-2.6 12.5-3.8 1.7-5.7-1.6-9.4-3.9-4.3-2.6-16.3.2-18.6-3.7-5.5-9.4 34.3-25.6-11.2-24.9-5.4.1-32.1 6.3-28.8-8.3 3-13.8 43.1 6.4 32-10.6-1.8-2.7-6.9-8.3-5.9-12.5.5-2.2-.4-4.8-1.3-7.4-3.7-10.5-.9-14.6 6.7-20.7h0zm32.1 185.4c-6 2.7-12.3 4.7-18.8 6.1-1.9-2.5-3.8-4.8-6-5.7s-6.2-.3-7.6 3c-1.3 2.8-2.8 4.1-4.2 4.9h-2.8c-1.5 0-3.1 0-4.6-.1-.3-5.9 5.7-9.4 6.6-10.4 7.7-8.6 16.3 3.4 24.8 5.6 4.1 1.1 8.4-4.2 12.6-3.4h0zm-22.1 6.8c-1.7.3-3.4.6-5 .8 2-1.1 3.8-1.4 5-.8h0zm79.7-94.6a102.73 102.73 0 0 1-2.9 23c-1.5-.6-2.7-1.3-3.5-2.5-2.3-3.4 6.7-12.8 5.3-16.7-.7-1.7-.2-3 1.1-3.8h0zm-5.2 30.3c-1 3.1-2.3 6.2-3.7 9.2-1.9-1.9-4.5-3.5-9.1-.4-2.3 1.5-.3 8.5 2.7 12.2-.8 1.2-1.6 2.4-2.5 3.6-6.2-6.8-10.2-16.8-7.2-24.1 1.9-4.8 16-4.4 19.7-.7 0 .1.1.2.1.2h0zm-150.9 45.8c-1.9-1.5-3.8-3-5.6-4.7 5.3.9 8.8.9 9.8-2 1.4-4-.6-10.6 3.3-12.3 5.7-2.5 16.2 6.3 22.7 5.3 2.3-.3 5.4-2.9 5-6.5-.9-7.3 4.1-8.1 2.8-10.4-2.5-4.3-12-2.4-13.9-.1-3.1 3.8 7.6 3.4 5.2 8.3-3.3 6.8-7.6 6.5-10.8-1-3.5-8.1 8.2-13.7 14.9-12.1 16.1 3.7 9.3 15.7 9 17.6-2.1 11.4-15.7 5.5-24.1 8-4.3 1.3-5.1 8.5-9.5 9.6-2.8.8-5.8.7-8.8.3h0zm-17.9-17.9c-4-5.2-7.5-10.8-10.4-16.8 2.2-5.5 11.9-9.8 18.3-11.7 11.7-3.6 14.2.9 16.3 7 1.4 4.2 6 5.7 6.3 9.7.3 4.3-3.1 5.1-7 6.4-4.2 1.4-11.4-4.6-12.9-6.5-6.9-8.9.9-8.9 1.7-5.9 2.1 8.1 3.9 3.3 6.6 4.6 4 1.9 4.5.3 2.5-4.3-4.6-11-11.5-6.8-14.6-5.6-17.3 6.8-.2 18.3 0 22.6.1 1-2.9.8-6.8.5h0zm7-126.4c3.3-3.4 6.8-6.5 10.5-9.4.2.3.5.8.6 1.2 1.4 6.1-9.2 14.8-9.4 21.3-.1 2.3 1.9 5.9 5.4 6.1 7.4.4 7.2 5.6 9.8 4.7 4.7-1.7 4.6-11.3 2.7-13.6-3.2-3.8-4.7 6.8-9.1 3.6-6-4.5-4.9-8.7 3-10.4 8.6-1.9 11.9 10.6 9.2 16.9-6.6 15.1-17.2 6.3-19 5.6-10.8-4.2-2.5-16.4-3.4-25.1-.2-.4-.2-.6-.3-.9h0zm17.6-14.4c4.5-2.9 9.2-5.4 14.1-7.5 1.3 1.2 0 3.9-1.8 4-8.3.6-4 3.2-5.8 5.7-2.6 3.6-1.2 4.3 3.8 3.3 11.6-2.5 8.8-10 8.2-13.3-.1-.5-.2-.9-.2-1.4 1.8-.7 3.6-1.3 5.5-1.9-.1 1.9-.2 3.7 0 5.2 1.4 12.1-3.5 13.8-9.9 14.7-4.4.7-6.8 4.8-10.8 4.4-4.2-.4-4.4-4-5-8.1-.2-1.5.6-3.3 1.9-5.1h0zm89.8-7.8c6.4 2.7 12.5 6.1 18.1 10-.6 4.4-2.5 9.1-4.8 10.6-4.8 3.3-10.4.3-11.7-1.5-2.2-3.2 9.4-2.7 5.2-12.5-1.1-2.6-8.7-1.9-12.9.5-8.1 4.6-1.6 16.8 3.7 24.5 3.2 4.6 11.6 2.2 16.8.1 4.2-1.7 4.4-8.6 8.6-10.4 3.1-1.3 6.5 1 9.9 1.5 1 1 1.9 2.1 2.9 3.1-2.7 1.5-4.9 4.2-5.7 8.4-3.6 20.2-15.6 34.3-9.3 37.9 3.7 2.1 10.5 1.4 11.5 5.5 1.4 6.1-9.2 14.8-9.4 21.3-.1 2.3 1.9 5.9 5.4 6.1 7.4.4 7.2 5.6 9.8 4.7 4.7-1.7 4.6-11.3 2.7-13.6-3.2-3.8-4.7 6.8-9.1 3.6-6-4.5-4.9-8.7 3-10.4 8.6-1.9 11.9 10.6 9.2 16.9-6.7 15.1-17.2 6.3-19 5.6-10.8-4.2-2.5-16.4-3.4-25.1-.5-4.5-7.4-6.6-7.7-11.2-.7-10.9 11-23.4 4.8-32.3-5.9-8.5-37.7 3.4-34.8-6.6 5-17.6-8.2-15.7.1-26.4 3.4-4.6 9.6-8.5 16.1-10.3h0zm42.9 35.1a97.34 97.34 0 0 1 10.4 20c-2 1.2-4.4 1.6-6.9 1.6-5.2.1-9.9-6.3-10.5-11.4-.9-6.4 3.9-10.3 7-10.2h0zM808.7 427.6a120.19 120.19 0 0 1-7.8-2.7c-.8-.9-1.5-1.9-1.7-2.7-2.7-11.3 16.9-6 23.6-11.7 3.4-3 1.3-9.9 4.8-12.7 8.5-6.8 25.5-4.3 29.3-14.5 3.6-9.7-24.2-29-14.3-32.4 17.4-5.9 8.3-15.6 21.7-14.9 10.9.5 25.5 10.6 25.9 21.5.2 5.1-12.8 10.5-17.6 8.7-5.4-2.1-6.2-8.4-5.4-10.6 1.4-3.6 7.5 6.2 13.3-2.8 1.5-2.3-3.5-8.2-7.8-10.3-8.4-4-14.7 8.3-18 17-2 5.2 4.9 10.7 9.5 13.8 3.8 2.4 9.7-1.2 13.4 1.2 3.5 2.2 2.8 8 5.6 11 6.5 6.8 27.8-2 26.9 7.3-.9 9.9-22.1 15.4-29.6 21.9-9.2 8-15.1 4.4-18.9-.9-3-4.2-.4-11.7 3.4-15.1 6.4-5.8 15-.7 12.4 2.7-9.8 13.2 12.3 6.9 17.4 1.7 13-13.2-6.6-6.4-8.6-10.3-2.1-4.2-8-8.4-15.4-5.1-18.7 8.5-37.1 6.8-36.5 13.9.4 4.2 4.8 9.4 2 12.6-6.5 7.4-33.1.7-27.6 13.4h0z" class="B"/><linearGradient id="BN" gradientUnits="userSpaceOnUse" x1="376.326" y1="914.533" x2="376.326" y2="761.758"><stop offset="0" stop-color="#ffb977"/><stop offset="1" stop-color="#8c22f7"/></linearGradient><path opacity="0" fill="url(#BN)" d="M422 776.9c33.8 25.2 40.8 73.1 15.6 106.9s-73.1 40.8-106.9 15.6-40.8-73.1-15.6-106.9 73-40.8 106.9-15.6h0z" class="B"/><linearGradient id="BO" gradientUnits="userSpaceOnUse" x1="376.326" y1="914.182" x2="376.326" y2="762.108"><stop offset="0" stop-color="#ffb876"/><stop offset="1" stop-color="#8b22f6"/></linearGradient><path opacity=".01" fill="url(#BO)" d="M421.8 777.2c33.7 25.1 40.6 72.8 15.5 106.4-25.1 33.7-72.7 40.6-106.4 15.5s-40.6-72.7-15.5-106.4c25-33.7 72.7-40.6 106.4-15.5h0z" class="B"/><linearGradient id="BP" gradientUnits="userSpaceOnUse" x1="376.326" y1="913.831" x2="376.326" y2="762.459"><stop offset="0" stop-color="#ffb776"/><stop offset="1" stop-color="#8b21f6"/></linearGradient><path opacity=".02" fill="url(#BP)" d="M421.6 777.5c33.5 25 40.4 72.4 15.4 105.9s-72.4 40.5-105.9 15.5-40.4-72.4-15.4-105.9c24.9-33.6 72.3-40.5 105.9-15.5h0z" class="B"/><linearGradient id="BQ" gradientUnits="userSpaceOnUse" x1="376.326" y1="913.481" x2="376.326" y2="762.809"><stop offset="0" stop-color="#ffb575"/><stop offset="1" stop-color="#8a21f5"/></linearGradient><path fill="url(#BQ)" d="M421.4 777.7c33.4 24.9 40.2 72.1 15.4 105.4-24.9 33.4-72.1 40.3-105.4 15.4s-40.2-72-15.4-105.4c24.8-33.3 72-40.2 105.4-15.4h0z" class="B C"/><linearGradient id="BR" gradientUnits="userSpaceOnUse" x1="376.326" y1="913.13" x2="376.326" y2="763.16"><stop offset="0" stop-color="#ffb475"/><stop offset="1" stop-color="#8a20f5"/></linearGradient><path fill="url(#BR)" d="M421.2 778c33.2 24.8 40.1 71.7 15.3 104.9-24.7 33.2-71.7 40.1-104.9 15.3s-40.1-71.7-15.3-104.9c24.6-33.2 71.6-40 104.9-15.3h0z" class="B D"/><linearGradient id="BS" gradientUnits="userSpaceOnUse" x1="376.326" y1="912.779" x2="376.326" y2="763.51"><stop offset="0" stop-color="#ffb374"/><stop offset="1" stop-color="#8920f4"/></linearGradient><path fill="url(#BS)" d="M420.9 778.3c33.1 24.6 39.9 71.4 15.2 104.4-24.6 33.1-71.4 39.9-104.5 15.2-33-24.6-39.9-71.4-15.2-104.4s71.5-39.8 104.5-15.2h0z" class="B E"/><linearGradient id="BT" gradientUnits="userSpaceOnUse" x1="376.326" y1="912.428" x2="376.326" y2="763.861"><stop offset="0" stop-color="#ffb273"/><stop offset="1" stop-color="#891ff4"/></linearGradient><path fill="url(#BT)" d="M420.7 778.6c32.9 24.5 39.7 71.1 15.1 103.9-24.5 32.9-71.1 39.7-104 15.2s-39.7-71-15.1-103.9 71.1-39.7 104-15.2h0z" class="B F"/><linearGradient id="BU" gradientUnits="userSpaceOnUse" x1="376.326" y1="912.077" x2="376.326" y2="764.212"><stop offset="0" stop-color="#ffb173"/><stop offset="1" stop-color="#881ff3"/></linearGradient><path fill="url(#BU)" d="M420.5 778.9c32.8 24.4 39.5 70.7 15.1 103.5-24.4 32.7-70.7 39.5-103.5 15.1C299.4 873 292.6 826.7 317 794c24.4-32.8 70.8-39.5 103.5-15.1h0z" class="B G"/><linearGradient id="BV" gradientUnits="userSpaceOnUse" x1="376.326" y1="911.726" x2="376.326" y2="764.562"><stop offset="0" stop-color="#ffaf72"/><stop offset="1" stop-color="#881ef2"/></linearGradient><path fill="url(#BV)" d="M420.3 779.1c32.6 24.3 39.3 70.4 15 103s-70.4 39.3-103 15-39.3-70.4-15-103c24.3-32.5 70.4-39.2 103-15h0z" class="B H"/><linearGradient id="BW" gradientUnits="userSpaceOnUse" x1="376.326" y1="911.375" x2="376.326" y2="764.913"><stop offset="0" stop-color="#ffae72"/><stop offset="1" stop-color="#871ef2"/></linearGradient><path fill="url(#BW)" d="M420.1 779.4c32.4 24.2 39.1 70.1 14.9 102.5s-70.1 39.1-102.5 15c-32.4-24.2-39.1-70-14.9-102.5s70.1-39.1 102.5-15h0z" class="B I"/><linearGradient id="BX" gradientUnits="userSpaceOnUse" x1="376.326" y1="911.025" x2="376.326" y2="765.263"><stop offset="0" stop-color="#ffad71"/><stop offset="1" stop-color="#871df1"/></linearGradient><path fill="url(#BX)" d="M419.9 779.7c32.3 24.1 38.9 69.7 14.9 102s-69.7 38.9-102 14.9c-32.3-24.1-38.9-69.7-14.9-102s69.7-38.9 102-14.9h0z" class="B J"/><linearGradient id="BY" gradientUnits="userSpaceOnUse" x1="376.326" y1="910.674" x2="376.326" y2="765.614"><stop offset="0" stop-color="#ffac70"/><stop offset="1" stop-color="#861df1"/></linearGradient><path fill="url(#BY)" d="M419.7 780c32.1 24 38.8 69.4 14.8 101.5-23.9 32.1-69.4 38.8-101.5 14.8s-38.8-69.4-14.8-101.5c23.9-32.1 69.4-38.7 101.5-14.8h0z" class="B K"/><linearGradient id="BZ" gradientUnits="userSpaceOnUse" x1="376.326" y1="910.323" x2="376.326" y2="765.964"><stop offset="0" stop-color="#ffab70"/><stop offset="1" stop-color="#861df0"/></linearGradient><path fill="url(#BZ)" d="M419.5 780.3c32 23.8 38.6 69.1 14.7 101-23.8 32-69.1 38.6-101 14.7-32-23.8-38.6-69-14.7-101 23.8-32 69-38.5 101-14.7h0z" class="B L"/><linearGradient id="Ba" gradientUnits="userSpaceOnUse" x1="376.326" y1="909.972" x2="376.326" y2="766.315"><stop offset="0" stop-color="#ffa96f"/><stop offset="1" stop-color="#851cf0"/></linearGradient><path fill="url(#Ba)" d="M419.3 780.5c31.8 23.7 38.4 68.7 14.7 100.5s-68.7 38.4-100.5 14.7C301.6 872 295 827 318.7 795.2s68.7-38.3 100.6-14.7h0z" class="B M"/><linearGradient id="Bb" gradientUnits="userSpaceOnUse" x1="376.326" y1="909.621" x2="376.326" y2="766.666"><stop offset="0" stop-color="#ffa86e"/><stop offset="1" stop-color="#851cef"/></linearGradient><path fill="url(#Bb)" d="M419.1 780.8c31.7 23.6 38.2 68.4 14.6 100-23.6 31.7-68.4 38.2-100 14.6s-38.2-68.4-14.6-100c23.5-31.6 68.3-38.1 100-14.6h0z" class="B N"/><linearGradient id="Bc" gradientUnits="userSpaceOnUse" x1="376.326" y1="909.27" x2="376.326" y2="767.016"><stop offset="0" stop-color="#ffa76e"/><stop offset="1" stop-color="#841bee"/></linearGradient><path fill="url(#Bc)" d="M418.8 781.1c31.5 23.5 38 68.1 14.5 99.5-23.5 31.5-68 38-99.6 14.5-31.5-23.5-38-68-14.5-99.5 23.6-31.5 68.1-37.9 99.6-14.5h0z" class="B O"/><linearGradient id="Bd" gradientUnits="userSpaceOnUse" x1="376.326" y1="908.919" x2="376.326" y2="767.367"><stop offset="0" stop-color="#ffa66d"/><stop offset="1" stop-color="#841bee"/></linearGradient><path fill="url(#Bd)" d="M418.6 781.4c31.4 23.4 37.8 67.7 14.4 99s-67.7 37.8-99.1 14.5c-31.3-23.4-37.8-67.7-14.4-99 23.4-31.4 67.8-37.9 99.1-14.5h0z" class="B P"/><linearGradient id="Be" gradientUnits="userSpaceOnUse" x1="376.326" y1="908.569" x2="376.326" y2="767.717"><stop offset="0" stop-color="#ffa56d"/><stop offset="1" stop-color="#831aed"/></linearGradient><path fill="url(#Be)" d="M418.4 781.7c31.2 23.3 37.6 67.4 14.4 98.5-23.2 31.2-67.4 37.6-98.6 14.4-31.2-23.3-37.6-67.3-14.4-98.5 23.3-31.2 67.4-37.7 98.6-14.4h0z" class="B Q"/><linearGradient id="Bf" gradientUnits="userSpaceOnUse" x1="376.326" y1="908.218" x2="376.326" y2="768.068"><stop offset="0" stop-color="#ffa36c"/><stop offset="1" stop-color="#831aed"/></linearGradient><path fill="url(#Bf)" d="M418.2 782c31 23.1 37.4 67 14.3 98.1-23.1 31-67 37.4-98.1 14.3-31-23.1-37.4-67-14.3-98.1 23.2-31.1 67.1-37.5 98.1-14.3h0z" class="B R"/><linearGradient id="Bg" gradientUnits="userSpaceOnUse" x1="376.326" y1="907.867" x2="376.326" y2="768.418"><stop offset="0" stop-color="#ffa26b"/><stop offset="1" stop-color="#8219ec"/></linearGradient><path fill="url(#Bg)" d="M418 782.2c30.9 23 37.3 66.7 14.2 97.6-23 30.9-66.7 37.3-97.6 14.2-30.9-23-37.3-66.7-14.2-97.6 23-30.8 66.7-37.2 97.6-14.2h0z" class="B S"/><linearGradient id="Bh" gradientUnits="userSpaceOnUse" x1="376.326" y1="907.516" x2="376.326" y2="768.769"><stop offset="0" stop-color="#ffa16b"/><stop offset="1" stop-color="#8219ec"/></linearGradient><path fill="url(#Bh)" d="M417.8 782.5c30.7 22.9 37.1 66.4 14.2 97.1s-66.4 37.1-97.1 14.2-37.1-66.3-14.2-97.1c22.9-30.7 66.4-37.1 97.1-14.2h0z" class="B T"/><linearGradient id="Bi" gradientUnits="userSpaceOnUse" x1="376.326" y1="907.165" x2="376.326" y2="769.119"><stop offset="0" stop-color="#ffa06a"/><stop offset="1" stop-color="#8119eb"/></linearGradient><path fill="url(#Bi)" d="M417.6 782.8c30.6 22.8 36.9 66 14.1 96.6s-66 36.9-96.6 14.1-36.9-66-14.1-96.6 66-36.9 96.6-14.1h0z" class="B U"/><linearGradient id="Bj" gradientUnits="userSpaceOnUse" x1="376.326" y1="906.814" x2="376.326" y2="769.47"><stop offset="0" stop-color="#ff9f6a"/><stop offset="1" stop-color="#8118ea"/></linearGradient><path fill="url(#Bj)" d="M417.4 783.1c30.4 22.7 36.7 65.7 14 96.1s-65.7 36.7-96.1 14-36.7-65.7-14-96.1c22.6-30.4 65.7-36.7 96.1-14h0z" class="B V"/><linearGradient id="Bk" gradientUnits="userSpaceOnUse" x1="376.326" y1="906.464" x2="376.326" y2="769.821"><stop offset="0" stop-color="#ff9d69"/><stop offset="1" stop-color="#8018ea"/></linearGradient><path fill="url(#Bk)" d="M417.2 783.4c30.3 22.6 36.5 65.4 13.9 95.6-22.5 30.3-65.4 36.5-95.6 13.9-30.3-22.6-36.5-65.3-13.9-95.6 22.5-30.2 65.3-36.5 95.6-13.9h0z" class="B W"/><linearGradient id="Bl" gradientUnits="userSpaceOnUse" x1="376.326" y1="906.113" x2="376.326" y2="770.171"><stop offset="0" stop-color="#ff9c68"/><stop offset="1" stop-color="#8017e9"/></linearGradient><path fill="url(#Bl)" d="M417 783.6c30.1 22.4 36.3 65 13.9 95.1s-65 36.3-95.1 13.9-36.3-65-13.9-95.1c22.3-30.1 65-36.3 95.1-13.9h0z" class="B X"/><linearGradient id="Bm" gradientUnits="userSpaceOnUse" x1="376.326" y1="905.762" x2="376.326" y2="770.522"><stop offset="0" stop-color="#ff9b68"/><stop offset="1" stop-color="#7f17e9"/></linearGradient><path fill="url(#Bm)" d="M416.7 783.9c30 22.3 36.1 64.7 13.8 94.6s-64.7 36.1-94.6 13.8-36.1-64.7-13.8-94.6 64.7-36.1 94.6-13.8h0z" class="B Y"/><linearGradient id="Bn" gradientUnits="userSpaceOnUse" x1="376.326" y1="905.411" x2="376.326" y2="770.872"><stop offset="0" stop-color="#ff9a67"/><stop offset="1" stop-color="#7f16e8"/></linearGradient><path fill="url(#Bn)" d="M416.5 784.2c29.8 22.2 36 64.4 13.7 94.1-22.2 29.8-64.4 35.9-94.2 13.7s-36-64.3-13.7-94.1c22.3-29.7 64.4-35.9 94.2-13.7h0z" class="B Z"/><linearGradient id="Bo" gradientUnits="userSpaceOnUse" x1="376.326" y1="905.06" x2="376.326" y2="771.223"><stop offset="0" stop-color="#ff9967"/><stop offset="1" stop-color="#7e16e8"/></linearGradient><path fill="url(#Bo)" d="M416.3 784.5c29.7 22.1 35.8 64 13.7 93.6s-64 35.8-93.7 13.7c-29.6-22.1-35.8-64-13.7-93.6 22.1-29.7 64.1-35.8 93.7-13.7h0z" class="B a"/><linearGradient id="Bp" gradientUnits="userSpaceOnUse" x1="376.326" y1="904.709" x2="376.326" y2="771.573"><stop offset="0" stop-color="#ff9866"/><stop offset="1" stop-color="#7e15e7"/></linearGradient><path fill="url(#Bp)" d="M416.1 784.8c29.5 22 35.6 63.7 13.6 93.2s-63.7 35.6-93.2 13.6-35.6-63.7-13.6-93.2 63.7-35.6 93.2-13.6h0z" class="B b"/><linearGradient id="Bq" gradientUnits="userSpaceOnUse" x1="376.326" y1="904.358" x2="376.326" y2="771.924"><stop offset="0" stop-color="#ff9665"/><stop offset="1" stop-color="#7d15e7"/></linearGradient><path fill="url(#Bq)" d="M415.9 785.1c29.3 21.9 35.4 63.4 13.5 92.7s-63.4 35.4-92.7 13.5-35.4-63.3-13.5-92.7 63.4-35.4 92.7-13.5h0z" class="B c"/><linearGradient id="Br" gradientUnits="userSpaceOnUse" x1="376.326" y1="904.008" x2="376.326" y2="772.275"><stop offset="0" stop-color="#ff9565"/><stop offset="1" stop-color="#7d14e6"/></linearGradient><path fill="url(#Br)" d="M415.7 785.3c29.2 21.7 35.2 63 13.5 92.2s-63 35.2-92.2 13.4c-29.2-21.7-35.2-63-13.5-92.2 21.7-29.1 63-35.1 92.2-13.4h0z" class="B d"/><linearGradient id="Bs" gradientUnits="userSpaceOnUse" x1="376.326" y1="903.657" x2="376.326" y2="772.625"><stop offset="0" stop-color="#ff9464"/><stop offset="1" stop-color="#7c14e5"/></linearGradient><path fill="url(#Bs)" d="M415.5 785.6c29 21.6 35 62.7 13.4 91.7s-62.7 35-91.7 13.4-35-62.7-13.4-91.7 62.7-35 91.7-13.4h0z" class="B e"/><linearGradient id="Bt" gradientUnits="userSpaceOnUse" x1="376.326" y1="903.306" x2="376.326" y2="772.976"><stop offset="0" stop-color="#ff9364"/><stop offset="1" stop-color="#7c14e5"/></linearGradient><path fill="url(#Bt)" d="M415.3 785.9c28.9 21.5 34.8 62.4 13.3 91.2s-62.4 34.8-91.2 13.3c-28.9-21.5-34.8-62.3-13.3-91.2s62.3-34.8 91.2-13.3h0z" class="B f"/><linearGradient id="Bu" gradientUnits="userSpaceOnUse" x1="376.326" y1="902.955" x2="376.326" y2="773.326"><stop offset="0" stop-color="#ff9263"/><stop offset="1" stop-color="#7b13e4"/></linearGradient><path fill="url(#Bu)" d="M415.1 786.2c28.7 21.4 34.6 62 13.2 90.7s-62 34.6-90.7 13.2-34.6-62-13.2-90.7c21.3-28.7 62-34.6 90.7-13.2h0z" class="B g"/><linearGradient id="Bv" gradientUnits="userSpaceOnUse" x1="376.326" y1="902.604" x2="376.326" y2="773.677"><stop offset="0" stop-color="#ff9062"/><stop offset="1" stop-color="#7b13e4"/></linearGradient><path fill="url(#Bv)" d="M414.9 786.5c28.6 21.3 34.5 61.7 13.2 90.2s-61.7 34.4-90.2 13.2c-28.6-21.3-34.5-61.6-13.2-90.2 21.2-28.6 61.6-34.5 90.2-13.2h0z" class="B h"/><linearGradient id="Bw" gradientUnits="userSpaceOnUse" x1="376.326" y1="902.253" x2="376.326" y2="774.027"><stop offset="0" stop-color="#ff8f62"/><stop offset="1" stop-color="#7a12e3"/></linearGradient><path fill="url(#Bw)" d="M414.6 786.7c28.4 21.2 34.3 61.3 13.1 89.7s-61.4 34.3-89.7 13.1c-28.4-21.2-34.3-61.3-13.1-89.7s61.4-34.2 89.7-13.1h0z" class="B i"/><linearGradient id="Bx" gradientUnits="userSpaceOnUse" x1="376.326" y1="901.902" x2="376.326" y2="774.378"><stop offset="0" stop-color="#ff8e61"/><stop offset="1" stop-color="#7a12e3"/></linearGradient><path fill="url(#Bx)" d="M414.4 787c28.3 21.1 34.1 61 13 89.2-21 28.2-61 34.1-89.2 13s-34.1-61-13-89.2c21-28.2 61-34 89.2-13h0z" class="B j"/><linearGradient id="By" gradientUnits="userSpaceOnUse" x1="376.326" y1="901.552" x2="376.326" y2="774.729"><stop offset="0" stop-color="#ff8d61"/><stop offset="1" stop-color="#7911e2"/></linearGradient><path fill="url(#By)" d="M414.2 787.3c28.1 20.9 33.9 60.7 13 88.7-20.9 28.1-60.7 33.9-88.8 12.9-28.1-20.9-33.9-60.6-13-88.7 21-28 60.7-33.8 88.8-12.9h0z" class="B k"/><linearGradient id="Bz" gradientUnits="userSpaceOnUse" x1="376.326" y1="901.201" x2="376.326" y2="775.079"><stop offset="0" stop-color="#ff8c60"/><stop offset="1" stop-color="#7911e1"/></linearGradient><path fill="url(#Bz)" d="M414 787.6c27.9 20.8 33.7 60.3 12.9 88.2s-60.3 33.7-88.3 12.9c-27.9-20.8-33.7-60.3-12.9-88.2 20.9-28 60.4-33.7 88.3-12.9h0z" class="B l"/><linearGradient id="CA" gradientUnits="userSpaceOnUse" x1="376.326" y1="900.85" x2="376.326" y2="775.43"><stop offset="0" stop-color="#ff8a5f"/><stop offset="1" stop-color="#7810e1"/></linearGradient><path fill="url(#CA)" d="M413.8 787.9c27.8 20.7 33.5 60 12.8 87.8s-60 33.5-87.8 12.8-33.5-60-12.8-87.8 60-33.5 87.8-12.8h0z" class="B m"/><linearGradient id="CB" gradientUnits="userSpaceOnUse" x1="376.326" y1="900.499" x2="376.326" y2="775.78"><stop offset="0" stop-color="#ff895f"/><stop offset="1" stop-color="#7810e0"/></linearGradient><path fill="url(#CB)" d="M413.6 788.1c27.6 20.6 33.3 59.7 12.7 87.3s-59.7 33.3-87.3 12.7-33.3-59.6-12.7-87.3c20.6-27.5 59.7-33.2 87.3-12.7h0z" class="B n"/><linearGradient id="CC" gradientUnits="userSpaceOnUse" x1="376.326" y1="900.148" x2="376.326" y2="776.131"><stop offset="0" stop-color="#ff885e"/><stop offset="1" stop-color="#7710e0"/></linearGradient><path fill="url(#CC)" d="M413.4 788.4c27.5 20.5 33.2 59.3 12.7 86.8-20.5 27.4-59.3 33.1-86.8 12.7-27.5-20.5-33.2-59.3-12.7-86.8s59.3-33.1 86.8-12.7h0z" class="B o"/><linearGradient id="CD" gradientUnits="userSpaceOnUse" x1="376.326" y1="899.797" x2="376.326" y2="776.481"><stop offset="0" stop-color="#ff875d"/><stop offset="1" stop-color="#770fdf"/></linearGradient><path fill="url(#CD)" d="M413.2 788.7c27.3 20.4 33 59 12.6 86.3s-59 32.9-86.3 12.6c-27.3-20.4-33-59-12.6-86.3 20.3-27.3 59-32.9 86.3-12.6h0z" class="B p"/><linearGradient id="CE" gradientUnits="userSpaceOnUse" x1="376.326" y1="899.447" x2="376.326" y2="776.832"><stop offset="0" stop-color="#ff865d"/><stop offset="1" stop-color="#760fdf"/></linearGradient><path fill="url(#CE)" d="M413 789c27.2 20.2 32.8 58.7 12.5 85.8-20.2 27.1-58.7 32.7-85.8 12.5-27.2-20.2-32.8-58.6-12.5-85.8 20.2-27.1 58.6-32.7 85.8-12.5h0z" class="B q"/><linearGradient id="CF" gradientUnits="userSpaceOnUse" x1="376.326" y1="899.096" x2="376.326" y2="777.182"><stop offset="0" stop-color="#ff845c"/><stop offset="1" stop-color="#760ede"/></linearGradient><path fill="url(#CF)" d="M412.8 789.3c27 20.1 32.6 58.3 12.5 85.3S367 907.2 340 887c-27-20.1-32.6-58.3-12.5-85.3s58.3-32.6 85.3-12.4h0z" class="B r"/><linearGradient id="CG" gradientUnits="userSpaceOnUse" x1="376.326" y1="898.745" x2="376.326" y2="777.533"><stop offset="0" stop-color="#ff835c"/><stop offset="1" stop-color="#750edd"/></linearGradient><path fill="url(#CG)" d="M412.5 789.6c26.9 20 32.4 58 12.4 84.8s-58 32.4-84.8 12.4c-26.9-20-32.4-58-12.4-84.8 20-26.9 58-32.5 84.8-12.4h0z" class="B s"/><linearGradient id="CH" gradientUnits="userSpaceOnUse" x1="376.326" y1="898.394" x2="376.326" y2="777.884"><stop offset="0" stop-color="#ff825b"/><stop offset="1" stop-color="#750ddd"/></linearGradient><path fill="url(#CH)" d="M412.3 789.8c26.7 19.9 32.2 57.7 12.3 84.3-19.9 26.7-57.7 32.2-84.3 12.3-26.7-19.9-32.2-57.6-12.3-84.3 19.9-26.6 57.7-32.2 84.3-12.3h0z" class="B t"/><linearGradient id="CI" gradientUnits="userSpaceOnUse" x1="376.326" y1="898.043" x2="376.326" y2="778.234"><stop offset="0" stop-color="#ff815a"/><stop offset="1" stop-color="#740ddc"/></linearGradient><path fill="url(#CI)" d="M412.1 790.1c26.6 19.8 32 57.3 12.3 83.8-19.8 26.5-57.3 32-83.9 12.2-26.5-19.8-32-57.3-12.3-83.8 19.9-26.5 57.4-32 83.9-12.2h0z" class="B u"/><linearGradient id="CJ" gradientUnits="userSpaceOnUse" x1="376.326" y1="897.692" x2="376.326" y2="778.585"><stop offset="0" stop-color="#ff805a"/><stop offset="1" stop-color="#740cdc"/></linearGradient><path fill="url(#CJ)" d="M411.9 790.4c26.4 19.7 31.8 57 12.2 83.3-19.7 26.4-57 31.8-83.4 12.1s-31.8-57-12.2-83.3c19.7-26.3 57.1-31.8 83.4-12.1h0z" class="B v"/><linearGradient id="CK" gradientUnits="userSpaceOnUse" x1="376.326" y1="897.341" x2="376.326" y2="778.935"><stop offset="0" stop-color="#ff7e59"/><stop offset="1" stop-color="#730cdb"/></linearGradient><path opacity=".48" fill="url(#CK)" d="M411.7 790.7c26.2 19.5 31.7 56.6 12.1 82.9-19.5 26.2-56.7 31.6-82.9 12.1s-31.7-56.6-12.1-82.9 56.7-31.7 82.9-12.1h0z" class="B"/><linearGradient id="CL" gradientUnits="userSpaceOnUse" x1="376.326" y1="896.991" x2="376.326" y2="779.286"><stop offset="0" stop-color="#ff7d59"/><stop offset="1" stop-color="#730bdb"/></linearGradient><path opacity=".49" fill="url(#CL)" d="M411.5 791c26.1 19.4 31.5 56.3 12 82.4-19.4 26-56.3 31.4-82.4 12s-31.5-56.3-12-82.4c19.4-26.1 56.3-31.5 82.4-12h0z" class="B"/><linearGradient id="CM" gradientUnits="userSpaceOnUse" x1="376.326" y1="896.64" x2="376.326" y2="779.636"><stop offset="0" stop-color="#ff7c58"/><stop offset="1" stop-color="#720bda"/></linearGradient><use xlink:href="#Dl" opacity=".5" fill="url(#CM)" class="B"/><linearGradient id="CN" gradientUnits="userSpaceOnUse" x1="376.321" y1="896.64" x2="376.321" y2="779.636"><stop offset="0" stop-color="#ff7c58"/><stop offset="1" stop-color="#720bda"/></linearGradient><use xlink:href="#Dl" fill="url(#CN)" class="B"/><linearGradient id="CO" gradientUnits="userSpaceOnUse" x1="378.99" y1="895.289" x2="378.99" y2="779.636"><stop offset="0" stop-color="#ff7c58"/><stop offset="1" stop-color="#720bda"/></linearGradient><path fill="url(#CO)" d="M411.3 791.2c25.9 19.3 31.3 56 12 81.9-8.8 11.8-21.1 19.3-34.4 22.2-5.7-3.2-11.4-6.9-17-11-27.6-20.6-45.2-47.4-48.7-70.6 1.7-3.6 3.8-7.2 6.3-10.5 19.2-25.9 55.9-31.3 81.8-12h0z" class="B"/><linearGradient id="CP" gradientUnits="userSpaceOnUse" x1="382.988" y1="841.293" x2="382.988" y2="779.639"><stop offset="0" stop-color="#ff7c58"/><stop offset="1" stop-color="#720bda"/></linearGradient><path fill="url(#CP)" d="M411.3 791.2c15.2 11.3 23.3 28.5 23.6 46.1-19.8 9.8-55.6 1.2-87.7-22.7-5.8-4.3-11.1-8.9-16-13.6 19.6-24 55-28.5 80.1-9.8h0z" class="B"/><linearGradient id="CQ" gradientUnits="userSpaceOnUse" x1="371.194" y1="885.877" x2="371.194" y2="791.203"><stop offset="0" stop-color="#ff4998"/><stop offset="1" stop-color="#5600ac"/></linearGradient><path fill="url(#CQ)" d="M417.5 879.7c-2.3 2.3-4.8 4.4-7.4 6.2-13.5-4.7-27.4-12-40.7-21.9-21.1-15.8-36.6-35.1-44.7-53.7 1.3-2.4 2.9-4.8 4.5-7.1 3.5-4.7 7.6-8.6 12-12 5.6 22.2 23 46.8 48.9 66.1 8 6 16.2 11 24.5 15.1-14.4-4.6-29.4-12.3-43.6-22.9-3.8-2.9-7.5-5.8-10.9-8.9 6.2 6.6 13.2 12.9 21.1 18.8 11.9 8.8 24.2 15.6 36.3 20.3h0z" class="B"/><linearGradient id="CR" gradientUnits="userSpaceOnUse" x1="360.468" y1="895.989" x2="360.468" y2="839.765"><stop offset="0" stop-color="#ff4998"/><stop offset="1" stop-color="#5600ac"/></linearGradient><path fill="url(#CR)" d="M403.1 890.2c-5.7 2.9-11.8 4.9-18.1 5.8-11.8-4.7-23.7-11.3-35.2-19.8-12.7-9.5-23.4-20.3-31.6-31.5a40.28 40.28 0 0 1-.3-4.9c7.1 8.4 15.6 16.3 25.4 23.6 19.5 14.6 40.7 23.6 59.8 26.8h0z" class="B"/><linearGradient id="CS" gradientUnits="userSpaceOnUse" x1="407.117" y1="814.329" x2="407.117" y2="780.182"><stop offset="0" stop-color="#ff4998"/><stop offset="1" stop-color="#5600ac"/></linearGradient><path fill="url(#CS)" d="M411.3 791.2c8.4 6.2 14.6 14.2 18.5 23.1-8.1-2.9-16.6-7.5-24.7-13.6-8.4-6.3-15.4-13.4-20.6-20.6 9.4 1.4 18.6 5.1 26.8 11.1h0z" class="B"/><linearGradient id="CT" gradientUnits="userSpaceOnUse" x1="395.428" y1="852.955" x2="395.428" y2="781.127"><stop offset="0" stop-color="#ff4998"/><stop offset="1" stop-color="#5600ac"/></linearGradient><path fill="url(#CT)" d="M434.6 832.5c.7 6.8.1 13.8-1.6 20.5-11.3-4.6-22.8-11.1-33.8-19.3-19.9-14.8-34.8-32.8-43.1-50.4 2.3-.9 4.8-1.6 7.2-2.1 8 10.4 18.1 20.4 30 29.2 13.4 9.9 27.5 17.4 41.3 22.1h0z" class="B"/><linearGradient id="CU" gradientUnits="userSpaceOnUse" x1="1351.252" y1="637.913" x2="1351.252" y2="478.771"><stop offset="0" stop-color="#ba2ba0"/><stop offset="1" stop-color="#470b96"/></linearGradient><path fill="url(#CU)" d="M1333.4 637.8c-19.9-2.1-33.4-32-30.4-51.9 3.6-24.1 34.8-35 46.6-56.3 4.1-7.3-2.2-16.8-1.4-25.2.8-8 28.4-19.3 51.8-25.7v117.6c-14.8 2.1-41 44.2-66.6 41.5h0z" class="B"/><linearGradient id="CV" gradientUnits="userSpaceOnUse" x1="1351.25" y1="626.022" x2="1351.25" y2="479.121"><stop offset="0" stop-color="#ff4998"/><stop offset="1" stop-color="#5600ac"/></linearGradient><path fill="url(#CV)" d="M1335.8 625.9c-19.9-2.1-36-20.2-33-40 3.6-24.1 34.8-35 46.6-56.3 4.1-7.3-2.2-16.8-1.4-25.2.8-8 28.4-19 51.8-25.4v44c-4.9.7-8.1 1.7-10.7 3.7-19 14.2 11.8 43.6-4.2 44-13.8.4-22.9 58-49.1 55.2h0z" class="B"/><linearGradient id="CW" gradientUnits="userSpaceOnUse" x1="1358.099" y1="611.861" x2="1358.099" y2="492.817"><stop offset="0" stop-color="#ba2ba0"/><stop offset="1" stop-color="#470b96"/></linearGradient><path fill="url(#CW)" d="M1330.7 611.9c8 0 23-11.3 23-21.1s-15-14.4-23-14.4-14.5 7.9-14.5 17.8c0 9.7 6.5 17.7 14.5 17.7h0zm69.3-104.7v9.4c-1.2-2.7-3.6-7-.8-8.2.2-.1.8-.5.8-1.2h0zm-44.4 32.3c1.1 0 3.1-.7 3.1-2.9s-2.1-3.3-3.2-3.3-3.6 2.3-3.6 4.5c0 2.3 2.6 1.7 3.7 1.7h0zm32.2-20.5c1.7 0 4.7-1.1 4.7-4.4 0-3.4-3.2-5-4.9-5s-5.4 3.5-5.4 6.9c-.1 3.3 3.9 2.5 5.6 2.5h0zm-25.5-8c1.1 2.5 11.8-9.4 17.4-9.2 5.6.1 7.4-6.1 6.3-8.5-1.1-2.5-22 7.3-25 8.6s.2 6.6 1.3 9.1h0zm7.8 43.5c1.1 2.4 4 6.3 7 5s2.4-6.6 1.3-9.1-6.6-6.4-9.6-5.1c-3 1.4.2 6.7 1.3 9.2h0zm-26.7 8.3c4 0 10.9-1.6 10.9-6.5s-7.5-7.2-11.5-7.2-12.6 5.1-12.6 10c.1 4.9 9.2 3.7 13.2 3.7h0z" class="B"/><linearGradient id="CX" gradientUnits="userSpaceOnUse" x1="1389.49" y1="592.877" x2="1389.49" y2="532.794"><stop offset="0" stop-color="#ba2ba0"/><stop offset="1" stop-color="#470b96"/></linearGradient><path fill="url(#CX)" d="M1400 532.8v18.5c-4.9.2-7.9-.5-9.5-3.2-2.1-3.7 0-12.7 6.6-15 .6-.3 1.7-.3 2.9-.3h0zm-15.3 60c1.7 0 4.7-1.1 4.7-4.4 0-3.4-1.9-10.9-3.6-10.9s-6.7 9.4-6.7 12.8 3.8 2.5 5.6 2.5h0z" class="B"/><linearGradient id="CY" gradientUnits="userSpaceOnUse" x1="1208.978" y1="551.643" x2="1208.978" y2="387.502"><stop offset="0" stop-color="#ba2ba0"/><stop offset="1" stop-color="#470b96"/></linearGradient><path fill="url(#CY)" d="M1150.2 387.6c-19.9 2.1-33.4 32-30.3 51.8 3.6 24.1 34.8 35 46.6 56.3 4.1 7.3-2.3 16.8-1.5 25.2 1.3 12.8 71.5 33.8 80.7 30.3 5.8-2.1 54.4-43.3 52.6-55.5-1.7-11.8-23.4-13.4-25.2-25.2-2-13.2 21.8-34.2 11.1-42.2-19-14.2-50.7 1.2-66.7.7-13.8-.3-41-44.2-67.3-41.4h0z" class="B"/><linearGradient id="CZ" gradientUnits="userSpaceOnUse" x1="1184.985" y1="551.485" x2="1184.985" y2="399.359"><stop offset="0" stop-color="#ff4998"/><stop offset="1" stop-color="#5600ac"/></linearGradient><path fill="url(#CZ)" d="M1152.9 399.5c-19.9 2.1-36 20.2-33 40 3.6 24.1 34.8 35 46.6 56.3 4.1 7.3-2.3 16.8-1.5 25.2 1.3 12.8 71.2 32.9 80.7 30.3 5.8-1.5 5.1-26.8 3.3-38.5-2-13.2-32.2-6.1-42.9-14.1-19-14.2 11.9-43.6-4.1-44.1-13.9-.4-22.9-57.9-49.1-55.1h0z" class="B"/><linearGradient id="Ca" gradientUnits="userSpaceOnUse" x1="1187.252" y1="538.239" x2="1187.252" y2="413.52"><stop offset="0" stop-color="#ba2ba0"/><stop offset="1" stop-color="#470b96"/></linearGradient><path fill="url(#Ca)" d="M1147.7 413.5c8 0 23 11.3 23 21.1s-15 14.4-23 14.4c-7.9 0-14.4-7.9-14.4-17.8-.1-9.7 6.4-17.7 14.4-17.7h0zm25 72.3c1.1 0 3.1.7 3.1 2.9s-2.1 3.2-3.2 3.2c-1.2 0-3.6-2.3-3.6-4.5 0-2.1 2.6-1.6 3.7-1.6h0zm32.1 20.6c1.7 0 4.7 1.1 4.7 4.4s-3.2 4.9-4.9 4.9-5.4-3.5-5.4-6.9c0-3.2 3.9-2.4 5.6-2.4h0zm12.4 1.4c1.1-2.5 11.8 9.4 17.4 9.2 5.6-.1 7.4 6.1 6.3 8.5-.5 1-8.8 14.1-13.1 12.5-6.5-2.4-10-20.4-11.9-21.2-3-1.2.2-6.5 1.3-9h0zm-37.9 6.6c1.1-2.4 11.8 9.4 17.4 9.3s7.4 6.1 6.3 8.5-22-7.3-25-8.6c-3-1.4.2-6.7 1.3-9.2h0zm7.8-43.5c1.1-2.5 4-6.3 7-5s2.4 6.6 1.4 9.1c-1.1 2.5-6.6 6.4-9.6 5.1-3.1-1.4.1-6.8 1.2-9.2h0zm-26.6-8.3c4 0 10.9 1.6 10.9 6.5s-7.5 7.2-11.5 7.2-12.6-5.1-12.6-10 9.2-3.7 13.2-3.7h0z" class="B"/><linearGradient id="Cb" gradientUnits="userSpaceOnUse" x1="1243.985" y1="504.521" x2="1243.985" y2="432.53"><stop offset="0" stop-color="#ba2ba0"/><stop offset="1" stop-color="#470b96"/></linearGradient><path fill="url(#Cb)" d="M1267.2 444.4c1.7 0 4.7 1.1 4.7 4.4 0 3.4-3.2 4.9-4.9 4.9s-5.4-3.5-5.4-6.8 3.9-2.5 5.6-2.5h0zm13.8 46.4c4 0 11 1.6 11 6.5s-7.5 7.2-11.5 7.2-12.6-5.1-12.6-10 9.1-3.7 13.1-3.7h0zm-79.3-58.2c1.7 0 4.7 1 4.7 4.4s-1.9 10.9-3.6 10.9-6.7-9.4-6.7-12.8c-.1-3.3 3.8-2.5 5.6-2.5h0zm39.3 44.1c5.6-.1 3.3 5.7-.7 9.7-.8.8-22 7.6-26.3 6.1-6.5-2.4-8.6-11.4-6.5-15 4.1-7.3 20.4-.5 33.5-.8h0z" class="B"/><linearGradient id="Cc" gradientUnits="userSpaceOnUse" x1="1190.383" y1="764.508" x2="1190.383" y2="673.235"><stop offset="0" stop-color="#ba2ba0"/><stop offset="1" stop-color="#470b96"/></linearGradient><path fill="url(#Cc)" d="M1135.5 710.6c-8 9.2-1.6 28 7.9 35.5 18.7 14.9 21.9-10.4 53.8 17.5 5.9 5.1 45.7-14.6 48.4-19.9 1.7-3.4 6.2-41.7.4-46.4-5.6-4.5-26-25-34.1-24.1-1.5.2-65.9 25.3-76.4 37.4h0z" class="B"/><linearGradient id="Cd" gradientUnits="userSpaceOnUse" x1="1190.931" y1="764.498" x2="1190.931" y2="710.87"><stop offset="0" stop-color="#ff4998"/><stop offset="1" stop-color="#5600ac"/></linearGradient><path fill="url(#Cd)" d="M1141.5 714.8c-7.6 9.5-7.6 23.8 1.9 31.4 18.7 14.9 21.9-10.4 53.8 17.5 5.9 5.1 45.2-14.8 48.4-19.9 1.9-3.1-8.8-14-14.4-18.5-6.4-5-80.5-22-89.7-10.5h0z" class="B"/><linearGradient id="Ce" gradientUnits="userSpaceOnUse" x1="1172.665" y1="743.168" x2="1172.665" y2="718.604"><stop offset="0" stop-color="#ba2ba0"/><stop offset="1" stop-color="#470b96"/></linearGradient><path fill="url(#Ce)" d="M1149.6 720.5c-3.6 4.5-5.5 15.3-.9 18.9 4.8 3.8 42.3 8.2 50.6-5 .9-1.5-4.2-6.7-6.9-8.8-3.1-2.5-38.4-10.6-42.8-5.1h0z" class="B"/><linearGradient id="Cf" gradientUnits="userSpaceOnUse" x1="1217.422" y1="744.345" x2="1217.422" y2="725.773"><stop offset="0" stop-color="#ba2ba0"/><stop offset="1" stop-color="#470b96"/></linearGradient><path fill="url(#Cf)" d="M1227.3 735.5c1.5-1.9 2.3-6.5.4-8-2-1.6-18.1-3.5-21.7 2.1-.4.6 8.3 13.8 9.4 14.7 1.4 1 10-6.5 11.9-8.8h0z" class="B"/><linearGradient id="Cg" gradientUnits="userSpaceOnUse" x1="1225.455" y1="704.057" x2="1225.455" y2="682.816"><stop offset="0" stop-color="#ba2ba0"/><stop offset="1" stop-color="#470b96"/></linearGradient><path fill="url(#Cg)" d="M1243.6 702.8c1.6-2-22.3-17.4-24.2-19-2-1.6-8.6-1.9-12.2 3.8-.4.6 27.9 14.1 29 15 1.4 1.1 5.6 2.5 7.4.2h0z" class="B"/><linearGradient id="Ch" gradientUnits="userSpaceOnUse" x1="1178.65" y1="703.669" x2="1178.65" y2="692.627"><stop offset="0" stop-color="#ba2ba0"/><stop offset="1" stop-color="#470b96"/></linearGradient><path fill="url(#Ch)" d="M1185.7 699.8c1.5-1.9-.4-4.7-2.4-6.2-2-1.6-8.6-1.9-12.2 3.8-.4.6 3.8 5.1 5 6 1.3 1 7.7-1.2 9.6-3.6h0z" class="B"/><linearGradient id="Ci" gradientUnits="userSpaceOnUse" x1="1206.17" y1="703.497" x2="1206.17" y2="697.054"><stop offset="0" stop-color="#ba2ba0"/><stop offset="1" stop-color="#470b96"/></linearGradient><path fill="url(#Ci)" d="M1210.3 701.3c.9-1.1-.2-2.7-1.4-3.6s-5-1-7.1 2.2c-.2.3 2.2 3 2.9 3.5s4.5-.8 5.6-2.1h0z" class="B"/><linearGradient id="Cj" gradientUnits="userSpaceOnUse" x1="1116.855" y1="656.3" x2="1116.855" y2="589.783"><stop offset="0" stop-color="#ba2ba0"/><stop offset="1" stop-color="#470b96"/></linearGradient><path fill="url(#Cj)" d="M1108.8 590c15.2 2.6 46.5 17.7 50.4 32.6s-38 37.1-50.4 33.3c-12.4-3.7-25-19.9-33-33-8-13 17.8-35.5 33-32.9h0z" class="B"/><linearGradient id="Ck" gradientUnits="userSpaceOnUse" x1="1108.237" y1="656.306" x2="1108.237" y2="589.783"><stop offset="0" stop-color="#ff4998"/><stop offset="1" stop-color="#5600ac"/></linearGradient><path fill="url(#Ck)" d="M1108.8 590c15.2 2.6 29.1 18.1 33 32.9 3.9 14.9-20.6 36.7-33 33s-25-19.9-33-33c-8-13 17.8-35.5 33-32.9h0z" class="B"/><linearGradient id="Cl" gradientUnits="userSpaceOnUse" x1="1092.58" y1="627.004" x2="1092.58" y2="605.676"><stop offset="0" stop-color="#ba2ba0"/><stop offset="1" stop-color="#470b96"/></linearGradient><path fill="url(#Cl)" d="M1092.8 605.7c4.9.8 9.3 5.8 10.6 10.6s-6.6 11.8-10.6 10.6-8-6.4-10.6-10.6 5.7-11.4 10.6-10.6h0z" class="B"/><linearGradient id="Cm" gradientUnits="userSpaceOnUse" x1="1123.177" y1="630.335" x2="1123.177" y2="609.039"><stop offset="0" stop-color="#ba2ba0"/><stop offset="1" stop-color="#470b96"/></linearGradient><path fill="url(#Cm)" d="M1120.9 609.1c4.9.8 9.3 5.8 10.5 10.5 1.3 4.8-6.6 11.8-10.5 10.6-4-1.2-2.7-5.1-5.2-9.3-2.5-4.1.4-12.6 5.2-11.8h0z" class="B"/><linearGradient id="Cn" gradientUnits="userSpaceOnUse" x1="1110.599" y1="609.021" x2="1110.599" y2="598.498"><stop offset="0" stop-color="#ba2ba0"/><stop offset="1" stop-color="#470b96"/></linearGradient><path fill="url(#Cn)" d="M1111.7 609c-2.4-.4-4.6-2.9-5.2-5.2s3.3-5.8 5.2-5.2c2 .6 1.3 2.5 2.6 4.6 1.3 2-.2 6.2-2.6 5.8h0z" class="B"/><linearGradient id="Co" gradientUnits="userSpaceOnUse" x1="1102.666" y1="646.347" x2="1102.666" y2="635.828"><stop offset="0" stop-color="#ba2ba0"/><stop offset="1" stop-color="#470b96"/></linearGradient><path fill="url(#Co)" d="M1103.8 646.3c-2.4-.4-4.6-2.9-5.2-5.2-.6-2.4 3.3-5.8 5.2-5.2s1.3 2.5 2.6 4.5c1.2 2.1-.2 6.3-2.6 5.9h0z" class="B"/><linearGradient id="Cp" gradientUnits="userSpaceOnUse" x1="1039.923" y1="779.132" x2="1039.923" y2="735.231"><stop offset="0" stop-color="#ba2ba0"/><stop offset="1" stop-color="#470b96"/></linearGradient><path fill="url(#Cp)" d="M1023.3 764.6c-.3-7.9 3.9-25.3 11-28.9s22.8 15.1 22.2 21.8c-.6 6.6-7.3 14.7-13.1 20.2-5.6 5.4-19.8-5.2-20.1-13.1h0z" class="B"/><linearGradient id="Cq" gradientUnits="userSpaceOnUse" x1="1039.927" y1="779.132" x2="1039.927" y2="743.676"><stop offset="0" stop-color="#ff4998"/><stop offset="1" stop-color="#5600ac"/></linearGradient><path fill="url(#Cq)" d="M1023.3 764.6c-.3-7.9 6-16.6 13.1-20.2s20.7 6.4 20.2 13.1c-.6 6.6-7.3 14.7-13.1 20.2-5.7 5.4-19.9-5.2-20.2-13.1h0z" class="B"/><linearGradient id="Cr" gradientUnits="userSpaceOnUse" x1="1038.316" y1="775.625" x2="1038.316" y2="764.263"><stop offset="0" stop-color="#ba2ba0"/><stop offset="1" stop-color="#470b96"/></linearGradient><path fill="url(#Cr)" d="M1033 770.9c-.1-2.5 1.9-5.3 4.2-6.4 2.3-1.2 6.6 2 6.5 4.2-.2 2.1-2.3 4.7-4.2 6.5-1.9 1.7-6.4-1.7-6.5-4.3h0z" class="B"/><linearGradient id="Cs" gradientUnits="userSpaceOnUse" x1="1036.952" y1="758.769" x2="1036.952" y2="749.71"><stop offset="0" stop-color="#ba2ba0"/><stop offset="1" stop-color="#470b96"/></linearGradient><path fill="url(#Cs)" d="M1031.6 756.4c-.1-2.6 1.9-5.4 4.2-6.5 2.3-1.2 6.6 2.1 6.5 4.2-.2 2.1-2.3 1.9-4.1 3.6-1.9 1.8-6.4 1.2-6.6-1.3h0z" class="B"/><linearGradient id="Ct" gradientUnits="userSpaceOnUse" x1="1029.951" y1="764.356" x2="1029.951" y2="759.888"><stop offset="0" stop-color="#ba2ba0"/><stop offset="1" stop-color="#470b96"/></linearGradient><path fill="url(#Ct)" d="M1032.6 761c0 1.3-.9 2.6-2.1 3.2-1.1.6-3.3-1-3.2-2.1.1-1 1.1-.9 2-1.8.9-.8 3.2-.5 3.3.7h0z" class="B"/><linearGradient id="Cu" gradientUnits="userSpaceOnUse" x1="1049.619" y1="764.31" x2="1049.619" y2="759.853"><stop offset="0" stop-color="#ba2ba0"/><stop offset="1" stop-color="#470b96"/></linearGradient><path fill="url(#Cu)" d="M1052.3 761c0 1.3-.9 2.6-2.1 3.2-1.1.6-3.3-1-3.2-2.1.1-1 1.2-.9 2.1-1.8.8-.8 3.1-.6 3.2.7h0z" class="B"/><linearGradient id="Cv" gradientUnits="userSpaceOnUse" x1="1327.667" y1="714.495" x2="1327.667" y2="674.641"><stop offset="0" stop-color="#ba2ba0"/><stop offset="1" stop-color="#470b96"/></linearGradient><path fill="url(#Cv)" d="M1313.3 700c-.2-5.7-7.2-11.5-3.4-18.3 1.5-2.7 14.3-5.4 16.3-6.4 7.1-3.5 20.9 11 20.3 17.6s-7.3 14.7-13.1 20.2c-5.6 5.3-19.8-5.2-20.1-13.1h0z" class="B"/><linearGradient id="Cw" gradientUnits="userSpaceOnUse" x1="1329.94" y1="714.495" x2="1329.94" y2="679.02"><stop offset="0" stop-color="#ff4998"/><stop offset="1" stop-color="#5600ac"/></linearGradient><path fill="url(#Cw)" d="M1313.3 700c-.2-4.9 5.7-9.8 9.2-13.9 2.2-2.5 1.2-4.9 3.9-6.3 7.1-3.6 20.7 6.4 20.2 13.1-.6 6.6-7.3 14.7-13.1 20.2-5.7 5.3-19.9-5.2-20.2-13.1h0z" class="B"/><linearGradient id="Cx" gradientUnits="userSpaceOnUse" x1="1329.814" y1="711.711" x2="1329.814" y2="694.388"><stop offset="0" stop-color="#ba2ba0"/><stop offset="1" stop-color="#470b96"/></linearGradient><path fill="url(#Cx)" d="M1321.7 704.6c-.1-3.9 2.9-8.1 6.4-9.9 3.4-1.7 10.1 3.1 9.8 6.4-.3 3.2-3.6 7.2-6.4 9.8-2.7 2.7-9.6-2.4-9.8-6.3h0z" class="B"/><linearGradient id="Cy" gradientUnits="userSpaceOnUse" x1="1329.41" y1="690.755" x2="1329.41" y2="681.694"><stop offset="0" stop-color="#ba2ba0"/><stop offset="1" stop-color="#470b96"/></linearGradient><path fill="url(#Cy)" d="M1324.1 688.4c-.1-2.6 1.9-5.4 4.2-6.5 2.3-1.2 6.6 2 6.5 4.2-.2 2.1-2.3 1.9-4.1 3.6-1.9 1.8-6.5 1.2-6.6-1.3h0z" class="B"/><linearGradient id="Cz" gradientUnits="userSpaceOnUse" x1="1358.799" y1="808.035" x2="1358.799" y2="769.295"><stop offset="0" stop-color="#ba2ba0"/><stop offset="1" stop-color="#470b96"/></linearGradient><path fill="url(#Cz)" d="M1371.7 795.3c-4.7 3.3-5.8 12.2-13.6 12.7-3.1.2-12.3-9.1-14.2-10.3-6.8-4-2-23.5 3.9-26.6s16.4-1.8 24 .1c7.7 1.9 6.4 19.5-.1 24.1h0z" class="B"/><linearGradient id="DA" gradientUnits="userSpaceOnUse" x1="1359.999" y1="796.637" x2="1359.999" y2="769.295"><stop offset="0" stop-color="#ff4998"/><stop offset="1" stop-color="#5600ac"/></linearGradient><path fill="url(#DA)" d="M1371.7 795.3c-4 2.8-11.3.5-16.6-.2-3.3-.5-4.8 1.7-7.4.1-6.8-4.1-5.7-20.9.1-24s16.4-1.8 24 .1c7.7 1.8 6.4 19.4-.1 24h0z" class="B"/><linearGradient id="DB" gradientUnits="userSpaceOnUse" x1="1365.377" y1="787.27" x2="1365.377" y2="773.018"><stop offset="0" stop-color="#ba2ba0"/><stop offset="1" stop-color="#470b96"/></linearGradient><path fill="url(#DB)" d="M1371.1 785.7c-3.1 2.2-8.4 1.9-11.7 0-3.3-2-2.8-10.3.1-11.8s8-.9 11.7.1c3.7.9 3.1 9.5-.1 11.7h0z" class="B"/><linearGradient id="DC" gradientUnits="userSpaceOnUse" x1="1351.963" y1="793.484" x2="1351.963" y2="784.44"><stop offset="0" stop-color="#ba2ba0"/><stop offset="1" stop-color="#470b96"/></linearGradient><path fill="url(#DC)" d="M1356.1 792.5c-2.1 1.5-5.5 1.3-7.7 0s-1.9-6.7 0-7.7 2.8.9 5.3 1.5c2.5.5 4.5 4.7 2.4 6.2h0z" class="B"/><linearGradient id="DD" gradientUnits="userSpaceOnUse" x1="1378.105" y1="931.43" x2="1378.105" y2="827.484"><stop offset="0" stop-color="#ba2ba0"/><stop offset="1" stop-color="#470b96"/></linearGradient><path fill="url(#DD)" d="M1400 827.5c-12.3 1.8-26.3 5.1-28.1 9.1-3 6.5-18.1 31.2-15.3 38.8.4 1.1 26.2 37.8 43.5 56V827.5z" class="B"/><linearGradient id="DE" gradientUnits="userSpaceOnUse" x1="1372.101" y1="876.537" x2="1372.101" y2="837.531"><stop offset="0" stop-color="#ba2ba0"/><stop offset="1" stop-color="#470b96"/></linearGradient><path fill="url(#DE)" d="M1377.5 837.6c-2.2-1-11.7 25.8-12.7 28-1.1 2.3.2 8.8 6.5 11 .7.2 7.2-30.5 7.8-31.8.8-1.6 1.2-6-1.6-7.2h0z" class="B"/><linearGradient id="DF" gradientUnits="userSpaceOnUse" x1="1388.372" y1="909.292" x2="1388.372" y2="894.313"><stop offset="0" stop-color="#ba2ba0"/><stop offset="1" stop-color="#470b96"/></linearGradient><path fill="url(#DF)" d="M1388.4 894.6c-2.2-1-4.4 1.5-5.5 3.8s.2 8.9 6.5 11c.7.2 4.1-4.9 4.7-6.3.7-1.6-3-7.3-5.7-8.5h0z" class="B"/><linearGradient id="DG" gradientUnits="userSpaceOnUse" x1="1383.961" y1="878.92" x2="1383.961" y2="870.195"><stop offset="0" stop-color="#ba2ba0"/><stop offset="1" stop-color="#470b96"/></linearGradient><path fill="url(#DG)" d="M1384 870.3c-1.3-.6-2.6.9-3.2 2.2-.6 1.4.1 5.1 3.8 6.4.4.1 2.4-2.9 2.7-3.6.4-.9-1.8-4.2-3.3-5h0z" class="B"/><linearGradient id="DH" gradientUnits="userSpaceOnUse" x1="1196.913" y1="897.515" x2="1196.913" y2="862.554"><stop offset="0" stop-color="#ba2ba0"/><stop offset="1" stop-color="#470b96"/></linearGradient><path fill="url(#DH)" d="M1193.4 895.3c-4.4-3.6-13.4-2.2-16-9.5-1-2.9 5.4-14.3 5.9-16.5 2-7.7 22-8.5 26.6-3.7 4.7 4.8 6.3 15.2 6.6 23.1.4 7.8-16.9 11.5-23.1 6.6h0z" class="B"/><linearGradient id="DI" gradientUnits="userSpaceOnUse" x1="1201.622" y1="897.515" x2="1201.622" y2="863.408"><stop offset="0" stop-color="#ff4998"/><stop offset="1" stop-color="#5600ac"/></linearGradient><path fill="url(#DI)" d="M1193.4 895.3c-3.8-3.1-3.6-10.8-4.4-16.1-.5-3.3-3-4.1-2.2-7.1 2-7.7 18.5-11.4 23.1-6.6 4.7 4.8 6.3 15.2 6.6 23.1.4 7.9-16.9 11.6-23.1 6.7h0z" class="B"/><linearGradient id="DJ" gradientUnits="userSpaceOnUse" x1="1206.345" y1="893.121" x2="1206.345" y2="876.462"><stop offset="0" stop-color="#ba2ba0"/><stop offset="1" stop-color="#470b96"/></linearGradient><path fill="url(#DJ)" d="M1202.5 892c-3-2.4-4.2-7.5-3.2-11.3s9-5.6 11.3-3.2c2.3 2.3 3 7.4 3.2 11.3.1 3.9-8.3 5.6-11.3 3.2h0z" class="B"/><linearGradient id="DK" gradientUnits="userSpaceOnUse" x1="1193.642" y1="879.971" x2="1193.642" y2="869.34"><stop offset="0" stop-color="#ba2ba0"/><stop offset="1" stop-color="#470b96"/></linearGradient><path fill="url(#DK)" d="M1191.8 879.5c-2-1.6-2.7-5-2.1-7.4s5.9-3.6 7.4-2.1-.1 2.9 0 5.5-3.3 5.6-5.3 4h0z" class="B"/><linearGradient id="DL" gradientUnits="userSpaceOnUse" x1="228.237" y1="256.447" x2="228.237" y2="146.664"><stop offset="0" stop-color="#ff4998"/><stop offset="1" stop-color="#5600ac"/></linearGradient><path fill="url(#DL)" d="M276.9 146.9c3.3 2.9-15.8 29.7-42.7 59.9s-51.3 52.3-54.6 49.3c-3.3-2.9 15.8-29.7 42.7-59.9 26.8-30.1 51.3-52.2 54.6-49.3h0z" class="B"/><linearGradient id="DM" gradientUnits="userSpaceOnUse" x1="277.304" y1="227.574" x2="277.304" y2="177.975"><stop offset="0" stop-color="#ff4998"/><stop offset="1" stop-color="#5600ac"/></linearGradient><path fill="url(#DM)" d="M299.3 178.1c1.5 1.3-7.1 13.4-19.3 27.1-12.1 13.6-23.2 23.6-24.6 22.3-1.5-1.3 7.1-13.5 19.3-27.1 12.1-13.7 23.1-23.6 24.6-22.3h0z" class="B"/><linearGradient id="DN" gradientUnits="userSpaceOnUse" x1="315.1" y1="142.773" x2="315.1" y2="108.07"><stop offset="0" stop-color="#ff4998"/><stop offset="1" stop-color="#5600ac"/></linearGradient><path fill="url(#DN)" d="M330.5 108.2c1 .9-5 9.4-13.5 18.9-8.5 9.6-16.2 16.5-17.3 15.6-1-.9 5-9.4 13.5-18.9 8.5-9.6 16.2-16.6 17.3-15.6h0z" class="B"/><linearGradient id="DO" gradientUnits="userSpaceOnUse" x1="357.494" y1="173.681" x2="357.494" y2="101.262"><stop offset="0" stop-color="#ff4998"/><stop offset="1" stop-color="#5600ac"/></linearGradient><path fill="url(#DO)" d="M389.6 101.4c2.2 1.9-10.5 19.6-28.2 39.5s-33.8 34.5-36 32.6 10.5-19.6 28.2-39.5 33.8-34.5 36-32.6h0z" class="B"/><linearGradient id="DP" gradientUnits="userSpaceOnUse" x1="214.554" y1="177.849" x2="214.554" y2="149.545"><stop offset="0" stop-color="#ff4998"/><stop offset="1" stop-color="#5600ac"/></linearGradient><path fill="url(#DP)" d="M227.1 149.6c.8.7-4.1 7.7-11 15.4-6.9 7.8-13.2 13.5-14.1 12.7-.8-.7 4.1-7.7 11-15.5 6.9-7.7 13.2-13.4 14.1-12.6h0z" class="B"/><linearGradient id="DQ" gradientUnits="userSpaceOnUse" x1="275.131" y1="93.953" x2="275.131" y2="78.065"><stop offset="0" stop-color="#ff4998"/><stop offset="1" stop-color="#5600ac"/></linearGradient><path fill="url(#DQ)" d="M282.1 78.1c.5.4-2.3 4.3-6.2 8.7-3.9 4.3-7.4 7.6-7.9 7.1s2.3-4.3 6.2-8.7c4-4.3 7.5-7.5 7.9-7.1h0z" class="B"/><linearGradient id="DR" gradientUnits="userSpaceOnUse" x1="354.169" y1="78.209" x2="354.169" y2="62.321"><stop offset="0" stop-color="#ff4998"/><stop offset="1" stop-color="#5600ac"/></linearGradient><path fill="url(#DR)" d="M361.2 62.4c.5.4-2.3 4.3-6.2 8.7s-7.4 7.6-7.9 7.1c-.5-.4 2.3-4.3 6.2-8.7 3.9-4.3 7.4-7.6 7.9-7.1h0z" class="B"/><linearGradient id="DS" gradientUnits="userSpaceOnUse" x1="285.691" y1="69.623" x2="285.691" y2="0"><stop offset="0" stop-color="#ff4998"/><stop offset="1" stop-color="#5600ac"/></linearGradient><path fill="url(#DS)" d="M321.7 0l-17.1 20c-26.9 30.2-51.3 52.3-54.6 49.3-3.3-2.9 15.8-29.7 42.7-59.9 2.9-3.3 5.7-7 8.6-9.4h20.4z" class="B"/><linearGradient id="DT" gradientUnits="userSpaceOnUse" x1="140.559" y1="199.572" x2="140.559" y2="127.123"><stop offset="0" stop-color="#ff4998"/><stop offset="1" stop-color="#5600ac"/></linearGradient><path fill="url(#DT)" d="M172.6 127.3c2.2 2-10.5 19.6-28.2 39.5s-33.8 34.5-36 32.6c-2.1-1.9 10.5-19.6 28.2-39.5s33.9-34.5 36-32.6h0z" class="B"/><linearGradient id="DU" gradientUnits="userSpaceOnUse" x1="199.593" y1="141.368" x2="199.593" y2="106.641"><stop offset="0" stop-color="#ff4998"/><stop offset="1" stop-color="#5600ac"/></linearGradient><path fill="url(#DU)" d="M215 106.7c1 .9-5 9.4-13.5 19-8.5 9.5-16.2 16.5-17.3 15.6-1-.9 5-9.4 13.5-19 8.5-9.5 16.2-16.5 17.3-15.6h0z" class="B"/><linearGradient id="DV" gradientUnits="userSpaceOnUse" x1="109.955" y1="239.121" x2="109.955" y2="204.394"><stop offset="0" stop-color="#ff4998"/><stop offset="1" stop-color="#5600ac"/></linearGradient><path fill="url(#DV)" d="M125.3 204.5c1 .9-5 9.4-13.5 19-8.4 9.5-16.2 16.5-17.2 15.5-1-.9 5-9.4 13.5-19s16.2-16.4 17.2-15.5h0z" class="B"/><linearGradient id="DW" gradientUnits="userSpaceOnUse" x1="59.821" y1="225.474" x2="59.821" y2="175.876"><stop offset="0" stop-color="#ff4998"/><stop offset="1" stop-color="#5600ac"/></linearGradient><path fill="url(#DW)" d="M81.8 176c1.5 1.3-7.1 13.4-19.3 27-12.1 13.6-23.2 23.6-24.7 22.3s7.2-13.5 19.3-27.1c12.2-13.6 23.2-23.5 24.7-22.2h0z" class="B"/><linearGradient id="DX" gradientUnits="userSpaceOnUse" x1="161.308" y1="104.741" x2="161.308" y2="55.142"><stop offset="0" stop-color="#ff4998"/><stop offset="1" stop-color="#5600ac"/></linearGradient><path fill="url(#DX)" d="M183.3 55.3c1.5 1.3-7.2 13.5-19.3 27.1s-23.2 23.6-24.7 22.3 7.1-13.4 19.3-27c12.2-13.8 23.2-23.7 24.7-22.4h0z" class="B"/><linearGradient id="DY" gradientUnits="userSpaceOnUse" x1="151.793" y1="301.74" x2="151.793" y2="285.886"><stop offset="0" stop-color="#ff4998"/><stop offset="1" stop-color="#5600ac"/></linearGradient><use xlink:href="#Dm" fill="url(#DY)" class="B"/><linearGradient id="DZ" gradientUnits="userSpaceOnUse" x1="215.499" y1="52.179" x2="215.499" y2="36.291"><stop offset="0" stop-color="#ff4998"/><stop offset="1" stop-color="#5600ac"/></linearGradient><path fill="url(#DZ)" d="M222.5 36.3c.5.5-2.3 4.3-6.2 8.7s-7.4 7.6-7.9 7.1c-.5-.4 2.3-4.3 6.2-8.7 3.9-4.3 7.5-7.5 7.9-7.1h0z" class="B"/><linearGradient id="Da" gradientUnits="userSpaceOnUse" x1="151.728" y1="301.76" x2="151.728" y2="285.907"><stop offset="0" stop-color="#ff4998"/><stop offset="1" stop-color="#5600ac"/></linearGradient><use xlink:href="#Dm" x="-39.2" y="-213.3" fill="url(#Da)" class="B"/><linearGradient id="Db" gradientUnits="userSpaceOnUse" x1="270.316" y1="299.535" x2="270.316" y2="283.647"><stop offset="0" stop-color="#ff4998"/><stop offset="1" stop-color="#5600ac"/></linearGradient><path fill="url(#Db)" d="M277.4 283.7c.5.4-2.3 4.3-6.2 8.7-3.9 4.3-7.4 7.6-7.9 7.1s2.3-4.3 6.2-8.7c3.8-4.4 7.4-7.5 7.9-7.1h0z" class="B"/><linearGradient id="Dc" gradientUnits="userSpaceOnUse" x1="422.165" y1="49.205" x2="422.165" y2="33.352"><stop offset="0" stop-color="#ff4998"/><stop offset="1" stop-color="#5600ac"/></linearGradient><path fill="url(#Dc)" d="M429.2 33.4c.5.4-2.3 4.3-6.2 8.6-3.9 4.4-7.4 7.6-7.9 7.1-.5-.4 2.3-4.3 6.2-8.6s7.4-7.5 7.9-7.1h0z" class="B"/><defs ><path id="De" d="M623.5 112.1a6.49 6.49 0 1 0 0-13 6.49 6.49 0 1 0 0 13h0z"/><path id="Df" d="M882.7 96.4a6.49 6.49 0 1 0 0-13 6.49 6.49 0 0 0-6.5 6.5c.1 3.6 3 6.5 6.5 6.5h0z"/><path id="Dg" d="M79.5 126.9c1.8 0 3.2-1.4 3.2-3.2s-1.4-3.3-3.2-3.3a3.33 3.33 0 0 0-3.3 3.3c0 1.8 1.5 3.2 3.3 3.2h0z"/><path id="Dh" d="M796.4 630.5a1.58 1.58 0 1 0 0-3.2 1.58 1.58 0 1 0 0 3.2h0z"/><path id="Di" d="M77.7 373.1a1.58 1.58 0 1 0 0-3.2 1.58 1.58 0 0 0-1.6 1.6c-.1.9.7 1.6 1.6 1.6h0z"/><path id="Dj" d="M498 308.4a1.58 1.58 0 1 0 0-3.2 1.58 1.58 0 0 0-1.6 1.6c0 .8.7 1.6 1.6 1.6h0z"/><path id="Dk" d="M836.7 431.7c53.5 0 97-43.6 97-97s-43.6-97-97-97-97 43.6-97 97c0 53.5 43.6 97 97 97h0z"/><path id="Dl" d="M411.3 791.2c25.9 19.3 31.3 56 12 81.9s-56 31.2-81.9 11.9-31.3-55.9-12-81.9c19.3-25.8 56-31.2 81.9-11.9h0z"/><path id="Dm" d="M158.8 285.9c.5.4-2.3 4.3-6.2 8.6-3.9 4.4-7.4 7.6-7.9 7.1-.5-.4 2.3-4.3 6.2-8.7 3.9-4.2 7.4-7.4 7.9-7h0z"/></defs></svg>